<svg xmlns="http://www.w3.org/2000/svg" viewBox="0 0 1375.28 767.24"><defs><style>.cls-1{fill:#22b273;}.cls-2{fill:#fff;}</style></defs><g id="Layer_2" data-name="Layer 2"><g id="Layer_1-2" data-name="Layer 1"><rect width="1375.28" height="767.24" rx="28.23"/><path class="cls-1" d="M148.65,494.88h12.07v1.92H149.14L148,497.91v5.8l1.11,1.11h5.49l-3-3.13v-1.92l1.52-1.52H155l1.52,1.52v1.92L155,503.14l.78.78.86.9h4v1.92H148.65l-2.38-2.38v-7.1Zm5.95,7,.63-.62v-1l-.63-.62h-1.08l-.62.62v1l.62.62Z"/><path class="cls-1" d="M142.48,502h-1.94l-1.32-1.32v-2l1.32-1.35h1.63v-2.64l-2.53-2.54,1.21-1.16,3,3v6.66Zm.08-2.8-.57-.57h-1l-.57.57v.93l.57.57h1l.57-.57Z"/><path class="cls-1" d="M148.39,478.9h12.33v1.92H149.14L148,481.93v5.8l1.11,1.11h9.48l-1.89-2.07-.68-.77-1.29,1.29H152.9l-1.53-1.53v-1.91l1.53-1.53h1.94l5.88,6.52v1.92H148.39l-2.12-2.12V481Zm6,7,.62-.62v-1l-.62-.62h-1.09l-.62.62v1l.62.62Z"/><path class="cls-1" d="M159.19,467.74H146.27v-1.92h8.28l1.25.13v-1.78l1.52-1.53h1.87l1.53,1.53v2Zm0,7H146.27v-1.91h8.28l1.25.13v-1.79l1.52-1.53h1.87l1.53,1.53v2Zm.23-10.12-.62-.62h-1.09l-.62.62v1l.62.63h1.09l.62-.63Zm0,7-.62-.62h-1.09l-.62.62v1l.62.62h1.09l.62-.62Z"/><path class="cls-1" d="M146.27,448.76h12.32l2.13,2.12V458l-2.13,2.12H156l-1.84-2-1.6,2h-4.25l-2-2v-2.15l1.52-1.53h1.87l1.53,1.53v1.68l-.73.81H152l1.35-1.69v-3.05H155v3l1.45,1.56h1.48l1-1v-5.41l-1-1H146.27Zm3,9.27.62-.62v-1l-.62-.62h-1.09l-.62.62v1l.62.62Z"/><path class="cls-1" d="M152.84,444.51l-1.73-1.35-2.23,2.26-2.61-2.62v-7.17l2.09-2.1h12.36v1.92H149.14L148,436.56v5.65l.88.93,2.17-2.15,2.23,1.6h7.41v1.92Z"/><path class="cls-1" d="M152.43,427.55l-1.24-.13v1.76l-1.53,1.53h-1.87l-1.52-1.53v-2l1.52-1.53h9.72v0l-11.24-4v-2.51l2.12-2.12h12.33v1.91H149.09L148,419.93v.63l12.69,4.71v2.28Zm-2.54.1-.62-.62h-1.09l-.62.62v1l.62.62h1.09l.62-.62Z"/><path class="cls-1" d="M137.59,417h6.24v11h-2.38L139,425.5V420l1.11-1.22h-2.51Zm4.38,1.71-1.53,1.65v4.51l1.42,1.42h.55v-7.58Z"/><path class="cls-1" d="M131.82,418.74V417h4.24v1.78Z"/><path class="cls-1" d="M158.59,411h-6.16l-1.24-.13v1.77l-1.53,1.52h-1.87l-1.52-1.52v-2l1.52-1.53h10.13l1-1v-4.58l-1-1H146.27v-1.91h12.32l2.13,2.12v6.24Zm-8.7.11-.62-.62h-1.09l-.62.62v1l.62.62h1.09l.62-.62Z"/><path class="cls-1" d="M142.48,407.63v-2.07l-.8-.54v1l-1.19,1.22H139l-1.32-1.32v-1.76l1.32-1.32h1.89l1.58,1v-2.31l-3.8-2.8,1.08-1.19,4.12,3.06v7Zm-1.76-3-.57-.57h-.82l-.57.57v.78l.57.57h.82l.57-.57Z"/><path class="cls-1" d="M149.14,389,148,390.1v4.4l1.11,1.12h1.45v1.91h-2.2l-2.12-2.12v-6.27l2.12-2.07h12.33V389Z"/><path class="cls-1" d="M157.4,370.08h2l1.32,1.4v2.12L159.4,375h-1.2l2.52,4.38v1.71h-8.29l-1.24-.13v1.76l-1.53,1.53h-1.87l-1.52-1.53v-2l1.52-1.53h11l-3.29-6h-9.19v-1.92h10Zm-9.22,10.49-.62.62v1l.62.62h1.09l.62-.62v-1l-.62-.62Zm9.66-9.14-.65.65V373l.65.65h1l.64-.65v-.93l-.64-.65Z"/><path class="cls-1" d="M159.19,367H146.27v-1.91h8.28l1.25.13v-1.79l1.52-1.53h1.87l1.53,1.53v2Zm.23-3.08-.62-.62h-1.09l-.62.62v1l.62.62h1.09l.62-.62Z"/><path class="cls-1" d="M159.19,357.19h-1.92l-1.47-1.56V353.9l-1.25.13h-2.09l-1.58,6.86h-2.49l-2.12-2.12V351H148v7l1,1h.73l1.5-6.86h8l1.53,1.56v2Zm.23-3-.62-.67h-1.09l-.62.67v.94l.62.67h1.09l.62-.67Z"/><path class="cls-1" d="M137.59,351h6.24v11h-2.38L139,359.49v-3.62h-1.4v-1.76H139l1.22-1.4h-2.62Zm4.38,1.71-1.53,1.65v4.51l1.42,1.42h.55v-7.58Z"/><path class="cls-1" d="M158.59,347.48H152.9L151.37,346v-2l1.53-1.53h1.86l1.53,1.48v1.81l.93-.13h.7l1-1v-5l-1-1h-8.78L148,339.58v5.51l1.11,1.12h.93v1.91h-1.68L146.27,346v-7.33l2.12-2.12h10.2l2.13,2.12v6.68Zm-3.6-3.06-.62-.62h-1.09l-.62.62v1l.62.62h1.09l.62-.62Z"/><path class="cls-1" d="M157.4,319.69h2l1.32,1.4v2.12l-1.32,1.4h-1.2l2.52,4.38v1.7h-8.29l-1.24-.12v1.76l-1.53,1.52h-1.87l-1.52-1.52v-2l1.52-1.53h11l-3.29-6h-9.19v-1.92h10Zm-9.22,10.49-.62.62v1l.62.63h1.09l.62-.63v-1l-.62-.62Zm9.66-9.14-.65.64v.94l.65.64h1l.64-.64v-.94l-.64-.64Z"/><path class="cls-2" d="M229,461.61v-5.42l1.87-3.16v-2l-.55-.59H230l-1.35,1.47-1.42-1.47h-1.14l-1,1h1.71l1.47,1.47v1.71l-1.47,1.48h-1.92l-1.47-1.48V451.4l2.27-2.48h1.87l1.11,1.26,1-1.26h1.45l1.47,1.63v2.69l-1.65,2.9V461l.93.94h1.35l.93-.94v-7.89l-.7-1.09v-.88l3.68-3.78,1.21,1.29-3.05,3.06.75,1.06v8.86l-2,2h-3Zm-2.77-6.76.65-.65v-.93l-.65-.65h-.88l-.65.6v1l.65.65Z"/><path class="cls-2" d="M247.77,452.05l-1.11-1.11h-4.41l-1.11,1.11v1.45h-1.92v-2.2l2.13-2.13h6.26l2.08,2.13v12.33h-1.92Z"/><path class="cls-2" d="M253.8,462.1V449.17h1.92v8.29l-.13,1.25h1.79l1.53,1.52v1.87l-1.53,1.53h-2Zm3.09.23.62-.62v-1.09l-.62-.62h-1l-.62.62v1.09l.62.62Z"/><path class="cls-2" d="M261.86,462.1v-5.7l2.15-2h4.81l2.18,2.1v-4.4l-1.11-1.11h-5.78l-1,1V453h-1.92V451.3l2.12-2.13h7.49l2.1,2.13v12.33H271v-4.85l-2.75-2.66h-3.47l-1,.93v.7l-.15,1h1.79l1.52,1.52v1.87l-1.52,1.53h-2Zm3.05.23.63-.62v-1.09l-.63-.62h-1l-.62.62v1.09l.62.62Z"/><path class="cls-2" d="M265.79,445.39h2.08l.54-.8h-1l-1.22-1.19v-1.53l1.32-1.32h1.76l1.32,1.32v1.89l-1,1.58h2.31l2.79-3.8,1.19,1.08-3.05,4.12h-7Zm3-1.76.57-.57v-.83l-.57-.56H268l-.57.56v.83l.57.57Z"/><path class="cls-2" d="M275.61,455.08l1.53-1,5.46,7.82h.86v-6.52l.13-1.25h-1.77l-1.52-1.52V450.7l1.52-1.53h2l1.53,1.53v11.84l-1,1.09h-2.67Zm7.74-2.28.62-.62v-1.09l-.62-.62h-1l-.62.62v1.09l.62.62Z"/><path class="cls-2" d="M120.57,704.23v-1.91l1.56-1.48h1.73l-.13-1.24v-2.1l-6.86-1.58v-2.49l2.12-2.12h7.83v1.74h-7l-1,1v.73l6.86,1.5v8l-1.55,1.53h-2Zm3,.24.67-.63v-1.08l-.67-.63h-.93l-.68.63v1.08l.68.63Z"/><path class="cls-2" d="M119.67,687.53v-1.94l1.32-1.32h2l1.34,1.32v1.63h2.64l2.54-2.54,1.17,1.22-3,3H121Zm2.79.08L123,687v-1l-.57-.57h-.93l-.57.57v1l.57.57Z"/><path class="cls-2" d="M132.15,703.64v-6.17l.13-1.24h-1.76L129,694.7v-1.86l1.53-1.53h2l1.53,1.53V703l1,1h4.59l1-1V691.31h1.92v12.33l-2.13,2.12h-6.24Zm-.1-8.7.62-.63v-1.08l-.62-.62h-1l-.62.62v1.08l.62.63Z"/><path class="cls-2" d="M151.11,703.74v-5.41l1.86-3.16v-2l-.54-.6h-.37L150.72,694l-1.43-1.48h-1.14l-1,1h1.71l1.48,1.48v1.71l-1.48,1.47h-1.91l-1.48-1.47v-3.21l2.28-2.49h1.86l1.12,1.27,1-1.27h1.45l1.48,1.63v2.7l-1.66,2.9v4.84l.93.93h1.35l.93-.93v-7.9l-.7-1.09v-.88l3.68-3.78,1.22,1.3-3.06,3.05.75,1.06v8.86l-2,2h-3ZM148.34,697l.64-.65v-.93l-.64-.64h-.89l-.64.59v1l.64.65Z"/><path class="cls-2" d="M158,682.63v6.25H147v-2.39l2.46-2.46h3.62v-1.4h1.77V684l1.39,1.22v-2.62Zm-1.7,4.38-1.66-1.53h-4.51l-1.42,1.43v.54h7.59Z"/><path class="cls-2" d="M152.58,679.81h1.69l.44-.62h-.81l-1.08-1.09v-1.42l1.24-1.24h1.66l1.24,1.24v1.6l-1.06,1.53h1.86l2.67-3.49,1.09,1-3,3.81h-6Zm2.64-1.53.52-.51V677l-.52-.52h-.7L154,677v.75l.51.51Z"/><path class="cls-2" d="M162.47,703.64v-5.7l1.53-1.53h2l1.53,1.53v1.86l-1.48,1.53h-1.81l.13.93v.7l1,1h5l1-1v-8.78l-1.12-1.11h-5.51l-1.12,1.11v.94h-1.91v-1.69l2.12-2.12h7.33l2.12,2.12v10.21l-2.12,2.12H164.6Zm3.06-3.6.62-.62v-1.09l-.62-.62h-1l-.62.62v1.09l.62.62Z"/><path class="cls-2" d="M181.35,703.74v-5.23l1.38-3.26v-1.58l-1.12-1.12h-2.46l-.83.73h1.43l1.55,1.55v1.76l-1.55,1.56h-2l-1.55-1.56v-3l2.51-2.51h3.73l2,2v2.38l-1.22,3.06v4.61l.93.93h1.06l.94-.93V691.31h1.91v12.43l-2,2h-2.72Zm-2.12-6.89.67-.67v-1l-.67-.68h-.93l-.68.62v1l.68.67Z"/><path class="cls-2" d="M192.23,703.64v-5.7l1.53-1.53h2l1.53,1.53v1.86l-1.48,1.53H194l.13.93v.7l1,1h5l1-1v-8.78l-1.11-1.11h-5.52l-1.11,1.11v.94h-1.92v-1.69l2.13-2.12H201l2.13,2.12v10.21L201,705.76h-6.68Zm3.06-3.6.62-.62v-1.09l-.62-.62h-1l-.62.62v1.09l.62.62Z"/><path class="cls-2" d="M205.72,697.22l1.53-1,5.46,7.82h.86v-6.53l.13-1.24h-1.76l-1.53-1.53v-1.86l1.53-1.53h2l1.53,1.53v11.83l-1,1.09h-2.67Zm7.75-2.28.62-.63v-1.08l-.62-.62h-1l-.62.62v1.08l.62.63Z"/><path class="cls-2" d="M219.6,704.23V691.31h1.92v8.29l-.13,1.24h1.79l1.52,1.53v1.86l-1.52,1.53h-2Zm3.08.24.63-.63v-1.08l-.63-.63h-1l-.62.63v1.08l.62.63Z"/><path class="cls-2" d="M227.53,697.89l1.34-1.74-2.25-2.22,2.62-2.62h7.17l2.1,2.1v12.35h-1.92V694.18l-1.11-1.11h-5.65l-.93.88,2.15,2.18-1.61,2.22v7.41h-1.91Z"/><path class="cls-2" d="M236.59,683.59h1.92v5.29h-1.92Z"/><path class="cls-2" d="M250,694.18l-1.12-1.11h-4.4l-1.11,1.11v1.45h-1.92v-2.2l2.12-2.12h6.27l2.07,2.12v12.33H250Z"/><path class="cls-1" d="M235.79,197.7v12.07h-1.92V198.19l-1.11-1.11H227l-1.12,1.11v5.49l3.14-3h1.91l1.53,1.53V204l-1.53,1.53H229l-1.45-1.45-.78.78-.91.85v4h-1.91V197.7l2.38-2.38h7.1Zm-7,6,.62.62h1l.62-.62v-1.09l-.62-.62h-1l-.62.62Z"/><path class="cls-1" d="M228.64,191.54V189.6l1.32-1.32h2l1.35,1.32v1.63h2.64l2.54-2.54,1.16,1.22-3,3H230Zm2.8.08.57-.57v-1l-.57-.57h-.93l-.57.57v1l.57.57Z"/><path class="cls-1" d="M251.77,197.44v12.33h-1.92V198.19l-1.11-1.11h-5.8l-1.12,1.11v9.48l2.07-1.89.78-.67-1.29-1.3V202l1.52-1.53h1.92l1.53,1.53v1.94l-6.53,5.88h-1.91V197.44l2.12-2.12h7.61Zm-7.05,6,.62.62h1l.62-.62v-1.09l-.62-.62h-1l-.62.62Z"/><path class="cls-1" d="M255.88,208.24V195.32h1.92v8.29l-.13,1.24h1.79l1.53,1.53v1.86l-1.53,1.53h-2Zm3.09.23.62-.62v-1.08l-.62-.63h-1l-.62.63v1.08l.62.62Zm4-.23V195.32h1.91v8.29l-.12,1.24h1.78l1.53,1.53v1.86l-1.53,1.53h-2Zm3.08.23.62-.62v-1.08l-.62-.63h-1l-.62.63v1.08l.62.62Z"/><path class="cls-1" d="M281.91,195.32v12.33l-2.12,2.12h-7.07l-2.13-2.12v-2.59l2-1.84-2-1.61v-4.24l2.05-2.05h2.15l1.53,1.53v1.86l-1.53,1.53h-1.68l-.81-.73V201l1.69,1.35H277v1.66h-3l-1.55,1.45V207l1,1H279l1-1V195.32Zm-9.27,3,.62.62h1l.62-.62v-1.08l-.62-.63h-1l-.62.63Z"/><path class="cls-1" d="M286.16,201.9l1.34-1.74-2.25-2.23,2.62-2.61H295l2.1,2.1v12.35h-1.92V198.19l-1.11-1.11h-5.65l-.93.88,2.15,2.18-1.61,2.22v7.41h-1.91Z"/><path class="cls-1" d="M304.05,208.24v-1.91l1.56-1.48h1.73l-.13-1.24v-2.1l-6.86-1.58v-2.49l2.12-2.12h7.82v1.73h-7l-1,1v.72l6.86,1.51v8l-1.56,1.53h-2Zm3,.23.67-.62v-1.08l-.67-.63h-.94l-.67.63v1.08l.67.62Z"/><path class="cls-1" d="M313,199.88v-2l1.52-1.55h1.92l1.48,1.55v1.66l-.05.23.82-.13h.81l2.59-2.59,1.27,1.4-2.9,2.9h-5.94Zm0,7.77v-2l1.52-1.56h1.92l1.48,1.56v1.63l-.05.26.82-.13h.81l2.59-2.59,1.27,1.4-2.9,2.9h-5.94Zm3-7.62.59-.59v-1.09l-.59-.6h-1l-.6.6v1.09l.6.59Zm0,7.77.59-.59v-1.09l-.59-.6h-1l-.6.6v1.09l.6.59Z"/><path class="cls-1" d="M338.75,198.74,337.46,200l1.29,1.16v8.6h-1.91v-8.08L336,201l-6,8.78h-1.81v-8.29l.13-1.24h-1.76L325,198.71v-1.86l1.53-1.53h2l1.53,1.53V207.1l4.82-7.17-1.22-1.19v-1.89l1.53-1.53h2l1.52,1.53Zm-10.07-1.5-.62-.63h-1l-.62.63v1.08l.62.62h1l.62-.62Zm6.4,1.08.62.62h1l.63-.62v-1.08l-.63-.63h-1l-.62.63Z"/><path class="cls-1" d="M347.09,208.24v-1.91l1.56-1.48h1.73l-.13-1.24v-5.42l-1.11-1.11h-4.4l-1.12,1.11v1.45h-1.91v-2.2l2.12-2.12h6.24l2.1,2.12v10.8l-1.56,1.53h-2Zm3,.23.67-.62v-1.08l-.67-.63h-.94l-.67.63v1.08l.67.62Z"/><path class="cls-1" d="M350.25,187.6h1.92v5.28h-1.92Z"/><path class="cls-1" d="M363.67,198.19l-1.12-1.11h-4.4L357,198.19v1.45h-1.92v-2.2l2.12-2.12h6.27l2.07,2.12v12.33h-1.91Z"/><path class="cls-1" d="M368.28,201.22l1.52-1,5.47,7.82h.85v-6.53l.13-1.24h-1.76L373,198.71v-1.86l1.53-1.53h2l1.53,1.53v11.83l-1,1.09h-2.66Zm7.74-2.28.62-.62v-1.08l-.62-.63h-1l-.62.63v1.08l.62.62Z"/><path class="cls-1" d="M386.12,207.75v-5.23l1.37-3.26v-1.58l-1.11-1.12h-2.46l-.83.73h1.42l1.56,1.55v1.76l-1.56,1.56h-2L381,200.6v-3l2.51-2.51h3.73l2,2v2.38L388,202.52v4.61l.93.93H390l.93-.93V195.32h1.92v12.43l-2,2h-2.72ZM384,200.86l.67-.67v-1l-.67-.67h-.94l-.67.62v1l.67.67Z"/><path class="cls-1" d="M409.87,206.46v2l-1.4,1.32h-2.13L405,208.45v-1.19l-4.38,2.51h-1.71v-8.29l.13-1.24h-1.76l-1.53-1.53v-1.86l1.53-1.53h2l1.53,1.53v11l6-3.29v-9.19h1.91v10Zm-10.49-9.22-.62-.63h-1l-.62.63v1.08l.62.62h1l.62-.62Zm9.14,9.65-.65-.64h-.93l-.65.64v1l.65.65h.93l.65-.65Z"/><path class="cls-1" d="M423.05,196.33l1.11,1.11v12.33h-1.92v-4.84l-2.74-2.67H416l-1,.93v.7l-.15,1h1.79l1.52,1.53v1.86l-1.52,1.53h-2l-1.53-1.53v-5.7l2.15-2h4.84l2.17,2.1v-4.41l-1.11-1.11h-5.8l-1,1v1.07h-1.92v-1.69l2.12-2.12h7l2.15-2.15,1.27,1.27Zm-8.57,10.44v1.08l.62.62h1l.62-.62v-1.08l-.62-.63h-1Z"/><path class="cls-1" d="M422.24,187.6h1.92v5.28h-1.92Z"/><path class="cls-1" d="M426.83,201.22l1.53-1,5.46,7.82h.86v-6.53l.12-1.24H433l-1.52-1.53v-1.86l1.52-1.53h2l1.53,1.53v11.83l-1,1.09h-2.67Zm7.74-2.28.62-.62v-1.08l-.62-.63h-1l-.63.63v1.08l.63.62Z"/><path class="cls-2" d="M310.65,113.74,312,112l-2.25-2.23,2.61-2.61h7.17l2.1,2.09v12.36h-1.91V110l-1.12-1.11H313l-.94.88,2.15,2.17-1.6,2.23v7.41h-1.92Z"/><path class="cls-2" d="M327.61,113.33l.13-1.24H326l-1.53-1.53v-1.87l1.53-1.52h2l1.53,1.52v9.71h0l4-11.23h2.51l2.13,2.12v12.33h-1.92V110l-1.06-1.06h-.62l-4.72,12.69h-2.28Zm-.1-2.54.62-.62v-1.09l-.62-.62h-1l-.62.62v1.09l.62.62Z"/><path class="cls-2" d="M354.11,107.17v14.45H352.4L346.86,119v1.14l-1.53,1.53h-2l-1.53-1.53v-1.87l1.53-1.52h1.27v-3.37l.13-1.24h-1.77l-1.52-1.53v-1.87l1.52-1.52h2l1.53,1.52v8.24l5.7,2.72V107.17Zm-9,3v-1.09l-.62-.62h-1l-.62.62v1.09l.62.62h1Zm.37,8.47-.65-.65h-1l-.65.65v1l.65.65h1l.65-.65Z"/><path class="cls-2" d="M357.5,120.86v-1.14l.75-.75h1.14l.75.75v1.14l-.75.76h-1.14Z"/><path class="cls-2" d="M546.72,267.46l1.12,1.11V280.9h-1.92v-4.84l-2.74-2.67h-3.5l-1,.93v.7l-.16,1h1.79l1.53,1.53v1.86l-1.53,1.53h-2l-1.53-1.53v-5.7l2.15-2h4.84l2.18,2.1v-4.41l-1.11-1.11H539l-1,1v1.07h-1.91v-1.69l2.12-2.12h7l2.14-2.15,1.27,1.27Zm-8.57,10.44V279l.62.62h1l.62-.62V277.9l-.62-.63h-1Z"/><path class="cls-2" d="M552,279.37V273l1.45-1.74-2.25-2.23,2.62-2.61h7.17l2.1,2.1V280.9h-1.92V269.32L560,268.21h-5.65l-.93.88,2.15,2.18-1.71,2.22v1.25l-.13,1.24h1.74l1.55,1.48v1.91l-1.55,1.53h-2Zm3,.23.67-.62V277.9l-.67-.63H554l-.68.63V279l.68.62Z"/><path class="cls-2" d="M574.54,269.32l-1.12-1.11H569l-1.11,1.11v1.45H566v-2.2l2.12-2.12h6.27l2.07,2.12V280.9h-1.91Z"/><path class="cls-2" d="M593.44,277.59v2L592,280.9h-2.12l-1.4-1.32v-1.19l-4.38,2.51h-1.71v-8.29l.13-1.24H580.8l-1.53-1.53V268l1.53-1.53h2l1.53,1.53v10.95l6-3.29v-9.19h1.92v10ZM583,268.37l-.62-.63h-1l-.63.63v1.08l.63.62h1l.62-.62Zm9.14,9.65-.64-.64h-.94l-.64.64v1l.64.65h.94l.64-.65Z"/><path class="cls-2" d="M592.25,257.77V264h-11v-2.38l2.46-2.46h5.52l1.22,1.12v-2.52Zm-1.71,4.38-1.66-1.53h-4.5L583,262.05v.54h7.59Z"/><path class="cls-2" d="M600.48,278.88v-5.23l1.38-3.26v-1.58l-1.12-1.12h-2.46l-.83.73h1.43l1.55,1.55v1.76l-1.55,1.56h-2l-1.55-1.56v-3l2.51-2.51h3.73l2,2v2.38l-1.22,3.06v4.61l.93.93h1.06l.94-.93V266.45h1.91v12.43l-2,2H602.5ZM598.36,272l.67-.67v-1l-.67-.67h-.93l-.67.62v1l.67.67Z"/><path class="cls-2" d="M624.23,277.59v2l-1.4,1.32h-2.12l-1.4-1.32v-1.19l-4.38,2.51h-1.7v-8.29l.12-1.24h-1.76l-1.52-1.53V268l1.52-1.53h2l1.53,1.53v10.95l6-3.29v-9.19H623v10Zm-10.49-9.22-.62-.63h-1l-.63.63v1.08l.63.62h1l.62-.62Zm9.15,9.65-.65-.64h-.93l-.65.64v1l.65.65h.93l.65-.65Z"/><path class="cls-2" d="M637.41,267.46l1.12,1.11V280.9h-1.92v-4.84l-2.75-2.67h-3.49l-1,.93v.7l-.16,1H631l1.53,1.53v1.86L631,280.9h-2l-1.53-1.53v-5.7l2.15-2h4.84l2.18,2.1v-4.41l-1.11-1.11h-5.8l-1,1v1.07H626.8v-1.69l2.12-2.12h7L638,264.3l1.27,1.27Zm-8.57,10.44V279l.62.62h1l.62-.62V277.9l-.62-.63h-1Z"/><path class="cls-2" d="M636.61,258.73h1.92V264h-1.92Z"/><path class="cls-2" d="M641.19,272.35l1.53-1,5.47,7.82H649v-6.53l.13-1.24h-1.76l-1.53-1.53V268l1.53-1.53h2L651,268v11.83l-1,1.09h-2.67Zm7.75-2.28.62-.62v-1.08l-.62-.63h-1l-.62.63v1.08l.62.62Z"/><path class="cls-2" d="M665.17,267.46l1.12,1.11V280.9h-1.92v-4.84l-2.74-2.67h-3.5l-1,.93v.7l-.15,1h1.78l1.53,1.53v1.86l-1.53,1.53h-2l-1.53-1.53v-5.7l2.15-2h4.85l2.17,2.1v-4.41l-1.11-1.11h-5.8l-1,1v1.07h-1.91v-1.69l2.12-2.12h7l2.15-2.15,1.26,1.27ZM656.6,277.9V279l.62.62h1l.62-.62V277.9l-.62-.63h-1Z"/><path class="cls-2" d="M677.76,269.32l-1.11-1.11h-4.41l-1.11,1.11v1.45h-1.92v-2.2l2.13-2.12h6.26l2.08,2.12V280.9h-1.92Z"/><path class="cls-2" d="M694.85,266.45v12.33l-2.12,2.12h-7.07l-2.13-2.12v-2.59l2-1.84-2-1.61V268.5l2.05-2.05h2.15l1.53,1.53v1.86l-1.53,1.53h-1.68l-.81-.73v1.53l1.69,1.35H690v1.66h-3l-1.56,1.45v1.47l1,1h5.41l1-1V266.45Zm-9.27,3,.62.62h1l.62-.62v-1.08l-.62-.63h-1l-.62.63Z"/><path class="cls-2" d="M699.82,279.37v-15.8l3.16-3.65v-1.4l-.36-.36h-1l-2.3,2.23L697,258.16h-1.27v-1.65h1.76l1.87,1.83,1.78-1.83h2.54l1.17,1.16v2.59l-3.11,3.65v10.83l-.13,1.24h1.79l1.53,1.53v1.86l-1.53,1.53h-2Zm3.09.23.62-.62V277.9l-.62-.63h-1l-.62.63V279l.62.62Z"/><path class="cls-2" d="M719.82,269.87l-1.3,1.27,1.3,1.16v8.6H717.9v-8.08l-.83-.7-6,8.78h-1.82v-8.29l.13-1.24h-1.76l-1.53-1.53V268l1.53-1.53h2l1.53,1.53v10.25l4.82-7.17-1.22-1.19V268l1.53-1.53h2l1.53,1.53Zm-10.08-1.5-.62-.63h-1l-.63.63v1.08l.63.62h1l.62-.62Zm6.4,1.08.62.62h1l.62-.62v-1.08l-.62-.63h-1l-.62.63Z"/><path class="cls-2" d="M735.72,266.45V280.9H734l-5.54-2.67v1.14l-1.53,1.53h-2l-1.53-1.53v-1.86l1.53-1.53h1.27v-3.37l.13-1.24h-1.77L723,269.84V268l1.52-1.53h2L728.1,268v8.23l5.7,2.72V266.45Zm-9,3v-1.08l-.62-.63h-1l-.62.63v1.08l.62.62h1Zm.37,8.47-.65-.65h-1l-.65.65v1l.65.64h1l.65-.64Z"/><path class="cls-2" d="M538.05,479.11l1.11,1.12v12.32h-1.92v-4.84l-2.74-2.66H531l-1,.93v.7l-.15.95h1.79l1.52,1.53V491l-1.52,1.52h-2L528.08,491v-5.7l2.15-2.05h4.84l2.17,2.1V481l-1.11-1.11h-5.8l-1,1v1.06h-1.92v-1.68l2.12-2.13h7l2.15-2.14,1.27,1.26Zm-8.57,10.44v1.09l.62.62h1l.62-.62v-1.09l-.62-.62h-1Z"/><path class="cls-2" d="M543.28,491v-6.35l1.45-1.73-2.25-2.23,2.61-2.62h7.17l2.1,2.1v12.35h-1.91V481l-1.12-1.11h-5.64l-.93.88,2.14,2.17-1.7,2.23v1.24l-.13,1.24h1.73l1.55,1.48V491l-1.55,1.52h-2Zm3,.23.68-.62v-1.09l-.68-.62h-.93l-.67.62v1.09l.67.62Z"/><path class="cls-2" d="M565.86,481l-1.11-1.11h-4.41L559.23,481v1.45h-1.92v-2.2l2.13-2.13h6.27l2.07,2.13v12.32h-1.92Z"/><path class="cls-2" d="M584.76,489.24v2l-1.39,1.32h-2.13l-1.4-1.32V490l-4.37,2.51h-1.71v-8.28l.13-1.25h-1.76l-1.53-1.52v-1.87l1.53-1.53h2l1.53,1.53v11l6-3.29v-9.2h1.91v10ZM574.28,480l-.62-.62h-1L572,480v1.09l.62.62h1l.62-.62Zm9.14,9.66-.65-.65h-.93l-.65.65v1l.65.65h.93l.65-.65Z"/><path class="cls-2" d="M583.57,469.43v6.24h-11v-2.38l2.46-2.46h5.51l1.22,1.11v-2.51Zm-1.71,4.38-1.65-1.53H575.7l-1.42,1.42v.55h7.58Z"/><path class="cls-2" d="M591.81,490.54V485.3l1.37-3.26v-1.58l-1.11-1.11h-2.46l-.83.72h1.42l1.56,1.56v1.76l-1.56,1.55h-2l-1.56-1.55v-3l2.51-2.51h3.73l2,2v2.38l-1.21,3.05v4.61l.93.94h1.06l.93-.94V478.1h1.92v12.44l-2,2h-2.72Zm-2.12-6.89.67-.68v-1l-.67-.67h-.94l-.67.62v1l.67.68Z"/><path class="cls-2" d="M615.56,489.24v2l-1.4,1.32H612l-1.39-1.32V490l-4.38,2.51h-1.71v-8.28l.13-1.25h-1.76l-1.53-1.52v-1.87l1.53-1.53h2l1.53,1.53v11l6-3.29v-9.2h1.92v10ZM605.07,480l-.62-.62h-1l-.62.62v1.09l.62.62h1l.62-.62Zm9.14,9.66-.65-.65h-.93l-.65.65v1l.65.65h.93l.65-.65Z"/><path class="cls-2" d="M628.74,479.11l1.11,1.12v12.32h-1.92v-4.84l-2.74-2.66h-3.5l-1,.93v.7l-.15.95h1.79l1.52,1.53V491l-1.52,1.52h-2L618.77,491v-5.7l2.15-2.05h4.84l2.17,2.1V481l-1.11-1.11H621l-1,1v1.06h-1.92v-1.68l2.12-2.13h7l2.15-2.14,1.27,1.26Zm-8.57,10.44v1.09l.62.62h1l.62-.62v-1.09l-.62-.62h-1Z"/><path class="cls-2" d="M627.93,470.39h1.92v5.28h-1.92Z"/><path class="cls-2" d="M632.52,484l1.53-1,5.46,7.82h.86v-6.52l.12-1.25h-1.76l-1.52-1.52v-1.87l1.52-1.53h2l1.53,1.53v11.84l-1,1.08h-2.67Zm7.74-2.28.62-.62V480l-.62-.62h-1l-.63.62v1.09l.63.62Z"/><path class="cls-2" d="M658.86,481.52l-1.3,1.27,1.3,1.17v8.59h-1.92v-8.08l-.83-.69-6,8.77h-1.82v-8.28l.13-1.25h-1.76l-1.53-1.52v-1.87l1.53-1.53h2l1.53,1.53v10.26l4.82-7.18-1.22-1.19v-1.89l1.53-1.53h2l1.53,1.53ZM648.78,480l-.62-.62h-1l-.62.62v1.09l.62.62h1l.62-.62Zm6.4,1.09.62.62h1l.62-.62V480l-.62-.62h-1l-.62.62Z"/><path class="cls-2" d="M675.84,489.24v2l-1.39,1.32h-2.13l-1.4-1.32V490l-4.37,2.51h-1.71v-8.28L665,483h-1.76l-1.53-1.52v-1.87l1.53-1.53h2l1.52,1.53v11l6-3.29v-9.2h1.91v10ZM665.36,480l-.63-.62h-1l-.62.62v1.09l.62.62h1l.63-.62Zm9.14,9.66-.65-.65h-.93l-.65.65v1l.65.65h.93l.65-.65Z"/><path class="cls-2" d="M678.93,490.43v-5.7l1.52-1.52h2l1.53,1.52v1.87l-1.48,1.53h-1.81l.13.93v.7l1,1h5l1-1V481l-1.12-1.11h-5.51L680.19,481v.93h-1.91v-1.68l2.12-2.13h7.33l2.12,2.13v10.2l-2.12,2.12h-6.68Zm3.05-3.6.62-.62v-1.09l-.62-.62h-1l-.63.62v1.09l.63.62Z"/><path class="cls-2" d="M692.42,484l1.53-1,5.46,7.82h.85v-6.52l.13-1.25h-1.76l-1.53-1.52v-1.87l1.53-1.53h2l1.53,1.53v11.84l-1,1.08h-2.66Zm7.74-2.28.62-.62V480l-.62-.62h-1l-.63.62v1.09l.63.62Z"/><path class="cls-2" d="M706.3,491V478.1h1.91v8.29l-.12,1.24h1.78l1.53,1.53V491l-1.53,1.52h-2Zm3.08.23.62-.62v-1.09l-.62-.62h-1l-.62.62v1.09l.62.62Zm4-.23V478.1h1.92v8.29l-.13,1.24h1.79l1.52,1.53V491l-1.52,1.52h-2Zm3.08.23.63-.62v-1.09l-.63-.62h-1l-.62.62v1.09l.62.62Z"/><path class="cls-2" d="M724.32,490.54V485.3l1.37-3.26v-1.58l-1.11-1.11h-2.46l-.83.72h1.43l1.55,1.56v1.76l-1.55,1.55h-2l-1.56-1.55v-3l2.52-2.51h3.73l2,2v2.38l-1.22,3.05v4.61l.93.94h1.06l.93-.94V478.1h1.92v12.44l-2,2h-2.72Zm-2.12-6.89.67-.68v-1l-.67-.67h-.93l-.68.62v1l.68.68Z"/><path class="cls-2" d="M747,478.1v14.45h-1.71l-5.54-2.66V491l-1.53,1.52h-2L734.65,491v-1.87l1.53-1.53h1.27v-3.36l.13-1.25h-1.76l-1.53-1.52v-1.87l1.53-1.53h2l1.53,1.53v8.24l5.69,2.72V478.1Zm-9,3V480l-.62-.62h-1l-.62.62v1.09l.62.62h1Zm.36,8.47-.65-.65h-1l-.65.65v1l.65.65h1l.65-.65Z"/><path class="cls-2" d="M866.52,491V478.11h1.92v8.28l-.13,1.25h1.79l1.53,1.52V491l-1.53,1.53h-2Zm3.09.23.62-.62v-1.09l-.62-.62h-1l-.62.62v1.09l.62.62Z"/><path class="cls-2" d="M886.36,480.2v12.36h-1.91V480.77l-.78-.9h-1.12l-2.14,1.6-2.15-1.6h-1.12l-.77.9v9.69l2-1.79.78-.62-1.27-1.29v-1.87l1.53-1.53h1.91l1.53,1.53v1.94l-6.52,5.73h-1.92V480.2l1.81-2.09h2.38l1.77,1.42,1.76-1.42h2.33Zm-7.09,6.14.62.62h1l.63-.62v-1.09l-.63-.62h-1l-.62.62Z"/><path class="cls-2" d="M897.86,481l-1.11-1.11h-4.41L891.23,481v1.45h-1.92v-2.2l2.13-2.12h6.26l2.08,2.12v12.33h-1.92Z"/><path class="cls-2" d="M903.89,491V478.11h1.92v8.28l-.13,1.25h1.79l1.53,1.52V491l-1.53,1.53h-2Zm3.08.23.63-.62v-1.09l-.63-.62h-1l-.62.62v1.09l.62.62Z"/><path class="cls-2" d="M911.82,479.63l1.53-1.52h2l1.52,1.52v1.87L915.42,483H913.6l.11,1.29V490h0l3.35-4.41h1.08l3.37,4.41h0V478.11h1.9v14.45h-1.82l-4-5.24-4,5.24h-1.81Zm3,2.1.63-.62V480l-.63-.62h-1l-.62.62v1.09l.62.62Z"/><path class="cls-2" d="M934.94,481l-1.11-1.11h-4.4L928.31,481v1.45H926.4v-2.2l2.12-2.12h6.27l2.07,2.12v12.33h-1.92Z"/><path class="cls-2" d="M1166.08,371.44l1.53-1.52h2l1.53,1.52v1.87l-1.48,1.53h-1.81l.1,1.29v5.65h0l3.37-4.41h1.08l3.4,4.41h0v-17.3h1.89v19.89H1176l-4-5.24-4,5.24h-1.82Zm3.06,2.1.62-.62v-1.09l-.62-.62h-1l-.62.62v1.09l.62.62Z"/><path class="cls-2" d="M1165.51,366.13v-1.94l1.32-1.32h2l1.35,1.32v1.63h1.6l2.41-2.4,1.17,1.21-2.85,2.85h-5.62Zm2.8.08.57-.57v-1l-.57-.57h-.93l-.57.57v1l.57.57Z"/><path class="cls-2" d="M1180.46,375.82l1.52-1,5.47,7.83h.85v-6.53l.13-1.24h-1.76l-1.53-1.53v-1.87l1.53-1.52h2l1.53,1.52v11.84l-1,1.09h-2.66Zm7.74-2.28.62-.62v-1.09l-.62-.62h-1l-.62.62v1.09l.62.62Z"/><path class="cls-2" d="M1194.47,376.49l1.34-1.73-2.25-2.23,2.62-2.61h7.17l2.1,2.09v12.36h-1.92V372.79l-1.11-1.11h-5.65l-.93.88,2.15,2.17-1.61,2.23v7.41h-1.91Z"/><path class="cls-2" d="M1209.69,382.84v-5.7l2.15-2h4.82l2.17,2.09v-4.4l-1.11-1.11H1212l-1,1v1.06h-1.91V372l2.12-2.12h7.48l2.1,2.12v12.33h-1.92v-4.85l-2.74-2.66h-3.47l-1,.93v.7l-.16,1h1.79l1.53,1.52v1.87l-1.53,1.53h-2Zm3.06.23.62-.62v-1.09l-.62-.62h-1l-.62.62v1.09l.62.62Z"/><path class="cls-2" d="M1226.73,382.24v-6.16l.13-1.24h-1.76l-1.53-1.53v-1.87l1.53-1.52h2l1.53,1.52v10.13l1,1h4.59l1-1V369.92h1.92v12.32l-2.12,2.13h-6.24Zm-.1-8.7.62-.62v-1.09l-.62-.62h-1l-.62.62v1.09l.62.62Z"/><path class="cls-2" d="M1164.55,692.84l1.53-1.53h2l1.53,1.53v1.86l-1.48,1.53h-1.81l.1,1.29v5.65h0l3.37-4.4h1.08l3.39,4.4h0v-17.3h1.89v19.89h-1.81l-4-5.23-4,5.23h-1.82Zm3.06,2.09.62-.62v-1.08l-.62-.63h-1l-.62.63v1.08l.62.62Z"/><path class="cls-2" d="M1164,687.53v-1.94l1.32-1.32h2l1.35,1.32v1.63h1.6l2.41-2.41,1.17,1.22-2.85,2.85h-5.62Zm2.8.08.57-.57v-1l-.57-.57h-.93l-.57.57v1l.57.57Z"/><path class="cls-2" d="M1178.93,697.21l1.52-1,5.47,7.82h.85v-6.53l.13-1.24h-1.76l-1.53-1.53v-1.86l1.53-1.53h2l1.53,1.53v11.83l-1,1.09H1185Zm7.74-2.28.62-.62v-1.08l-.62-.63h-1l-.62.63v1.08l.62.62Z"/><path class="cls-2" d="M1192.93,697.89l1.35-1.74-2.25-2.23,2.61-2.61h7.18l2.1,2.1v12.35H1202V694.18l-1.11-1.11h-5.65l-.93.88,2.15,2.18-1.61,2.22v7.41h-1.92Z"/><path class="cls-2" d="M1208.16,704.23v-5.7l2.15-2h4.82l2.17,2.1v-4.41l-1.11-1.11h-5.77l-1,1v1.07h-1.92v-1.69l2.13-2.12h7.48l2.1,2.12v12.33h-1.92v-4.84l-2.74-2.67h-3.47l-1,.93v.7l-.16,1h1.79l1.53,1.53v1.86l-1.53,1.53h-2Zm3.06.24.62-.63v-1.08l-.62-.63h-1l-.62.63v1.08l.62.63Z"/><path class="cls-2" d="M1225.2,703.64v-6.17l.13-1.24h-1.76L1222,694.7v-1.86l1.53-1.53h2l1.53,1.53V703l1,1h4.59l1-1V691.31h1.92v12.33l-2.12,2.12h-6.24Zm-.1-8.71.62-.62v-1.08l-.62-.63h-1l-.62.63v1.08l.62.62Z"/><path class="cls-2" d="M830.6,704.23V688.1l-4.35-2.2v-2.15l2.13-2.13H836v1.66h-6.89l-1,1V685l4.38,2.2V699.6l-.13,1.24h1.79l1.52,1.53v1.86l-1.52,1.53h-2Zm3.08.24.63-.63v-1.08l-.63-.63h-1l-.62.63v1.08l.62.63Z"/><path class="cls-2" d="M840.44,704.23v-1.91l1.56-1.48h1.73l-.13-1.24v-2.1l-6.86-1.58v-2.49l2.12-2.12h7.82v1.74h-7l-1,1v.72l6.86,1.51v8L844,705.76h-2Zm3,.24.67-.63v-1.08l-.67-.63h-.94l-.67.63v1.08l.67.63Z"/><path class="cls-2" d="M848.73,697.21l1.53-1,5.46,7.82h.86v-6.53l.13-1.24H855l-1.53-1.53v-1.86l1.53-1.53h2l1.52,1.53v11.83l-1,1.09h-2.67Zm7.74-2.28.62-.62v-1.08l-.62-.63h-1l-.62.63v1.08l.62.62Z"/><path class="cls-2" d="M861.19,697.21l1.52-1,5.47,7.82H869v-6.53l.13-1.24H867.4l-1.53-1.53v-1.86l1.53-1.53h2l1.53,1.53v11.83l-1,1.09h-2.66Zm7.74-2.28.62-.62v-1.08l-.62-.63h-1l-.62.63v1.08l.62.62Z"/><path class="cls-2" d="M882.45,694.18l-1.12-1.11h-4.4l-1.11,1.11v1.45H873.9v-2.2l2.13-2.12h6.26l2.07,2.12v12.33h-1.91Z"/><path class="cls-2" d="M901.35,702.45v2l-1.4,1.32h-2.12l-1.4-1.32v-1.19l-4.38,2.51h-1.7v-8.29l.12-1.24h-1.76l-1.52-1.53v-1.86l1.52-1.53h2l1.53,1.53v10.95l6-3.29v-9.19h1.92v10Zm-10.49-9.22-.62-.63h-1l-.62.63v1.08l.62.62h1l.62-.62Zm9.15,9.65-.65-.64h-.93l-.65.64v1l.65.65h.93l.65-.65Z"/><path class="cls-2" d="M916.89,694.73l-1.3,1.27,1.3,1.16v8.6H915v-8.08l-.83-.7-6,8.78H906.3v-8.29l.13-1.24h-1.76l-1.53-1.53v-1.86l1.53-1.53h2l1.53,1.53v10.25l4.81-7.17-1.22-1.19v-1.89l1.53-1.53h2l1.53,1.53Zm-10.07-1.5-.63-.63h-1l-.62.63v1.08l.62.62h1l.63-.62Zm6.39,1.08.62.62h1l.62-.62v-1.08l-.62-.63h-1l-.62.63Z"/><path class="cls-2" d="M932.79,691.31v14.45h-1.71l-5.54-2.67v1.14L924,705.76h-2l-1.53-1.53v-1.86l1.53-1.53h1.27v-3.37l.13-1.24h-1.76l-1.53-1.53v-1.86l1.53-1.53h2l1.53,1.53v8.23l5.69,2.72V691.31Zm-9,3v-1.08l-.62-.63h-1l-.62.63v1.08l.62.62h1Zm.36,8.47-.65-.65h-1l-.65.65v1l.65.65h1l.65-.65Z"/><path class="cls-2" d="M925.64,687.53v-1.94l1.32-1.32h2l1.35,1.32v1.63h2.64l2.54-2.54,1.16,1.22-3,3H927Zm2.8.08L929,687v-1l-.57-.57h-.93l-.57.57v1l.57.57Z"/><path class="cls-2" d="M937,697.89l1.34-1.74-2.25-2.23,2.62-2.61h7.17l2.1,2.1v12.35H946.1V694.18L945,693.07h-5.65l-.93.88,2.15,2.18L939,698.35v7.41H937Z"/><path class="cls-2" d="M954,703.64v-6.17l.13-1.24h-1.76l-1.53-1.53v-1.86l1.53-1.53h2l1.53,1.53V703l1,1h4.64l1-1V685.87h1.92v17.77l-2.12,2.12h-6.3Zm-.1-8.71.62-.62v-1.08l-.62-.63h-1l-.62.63v1.08l.62.62Z"/><path class="cls-2" d="M962.62,713.17l.11-1h-1.58l-1.48-1.48V709l1.48-1.48h1.91l1.48,1.48v5.9h-1.92Zm-.07-2.2.64-.65v-1l-.64-.65h-.88l-.65.65v1l.65.65Z"/><path class="cls-2" d="M961.28,686.67h-2.44v2.21h-1.78v-2.21h-2.44v-1.42h2.44v-2.2h1.78v2.2h2.44Z"/><path class="cls-2" d="M979.72,691.31v12.33l-2.13,2.12h-7.07l-2.12-2.12v-2.59l2-1.84-2-1.61v-4.24l2-2.05h2.15l1.53,1.53v1.86l-1.53,1.53h-1.68l-.8-.72V697l1.68,1.35h3.06V700h-3l-1.56,1.45V703l1,1h5.41l1-1V691.31Zm-9.28,3,.63.62h1l.62-.62v-1.08l-.62-.63h-1l-.63.63Z"/><path class="cls-2" d="M551.86,692.32l1.12,1.11v12.33h-1.92v-4.84l-2.74-2.67h-3.5l-1,.93v.7l-.16,1h1.79l1.53,1.53v1.86l-1.53,1.53h-2l-1.53-1.53v-5.7l2.15-2h4.85l2.17,2.1v-4.41L550,693.07h-5.8l-1,1v1.07h-1.91v-1.69l2.12-2.12h7l2.15-2.15,1.26,1.27Zm-8.57,10.44v1.08l.62.63h1l.62-.63v-1.08l-.62-.63h-1Z"/><path class="cls-2" d="M557.09,704.23v-6.34l1.46-1.74-2.26-2.23,2.62-2.61h7.17l2.1,2.1v12.35h-1.92V694.18l-1.11-1.11H559.5l-.93.88,2.15,2.18L559,698.35v1.25l-.13,1.24h1.74l1.55,1.48v1.91l-1.55,1.53h-2Zm3,.24.67-.63v-1.08l-.67-.63h-.93l-.68.63v1.08l.68.63Z"/><path class="cls-2" d="M579.68,694.18l-1.12-1.11h-4.4l-1.11,1.11v1.45h-1.92v-2.2l2.12-2.12h6.27l2.07,2.12v12.33h-1.91Z"/><path class="cls-2" d="M598.58,702.45v2l-1.4,1.32h-2.12l-1.4-1.32v-1.19l-4.38,2.51h-1.71v-8.29l.13-1.24h-1.76l-1.52-1.53v-1.86l1.52-1.53h2l1.53,1.53v10.95l6-3.29v-9.19h1.92v10Zm-10.49-9.22-.62-.63h-1l-.63.63v1.08l.63.62h1l.62-.62Zm9.14,9.65-.64-.64h-.94l-.64.64v1l.64.65h.94l.64-.65Z"/><path class="cls-2" d="M597.39,682.63v6.25h-11v-2.39l2.46-2.46h5.52l1.22,1.12v-2.52ZM595.68,687,594,685.48h-4.5l-1.43,1.43v.54h7.59Z"/><path class="cls-2" d="M605.63,703.74v-5.23l1.37-3.26v-1.58l-1.12-1.12h-2.46l-.83.73H604l1.55,1.55v1.76L604,698.15h-2l-1.55-1.56v-3l2.51-2.51h3.73l2,2v2.38l-1.22,3.06v4.61l.93.93h1.07l.93-.93V691.31h1.91v12.43l-2,2h-2.72Zm-2.13-6.89.68-.67v-1l-.68-.67h-.93l-.67.62v1l.67.67Z"/><path class="cls-2" d="M629.37,702.45v2l-1.4,1.32h-2.12l-1.4-1.32v-1.19l-4.37,2.51h-1.71v-8.29l.13-1.24h-1.77l-1.52-1.53v-1.86l1.52-1.53h2l1.53,1.53v10.95l6-3.29v-9.19h1.92v10Zm-10.49-9.22-.62-.63h-1l-.62.63v1.08l.62.62h1l.62-.62Zm9.15,9.65-.65-.64h-.93l-.65.64v1l.65.65h.93l.65-.65Z"/><path class="cls-2" d="M642.55,692.32l1.12,1.11v12.33h-1.92v-4.84L639,698.25h-3.5l-1,.93v.7l-.16,1h1.79l1.53,1.53v1.86l-1.53,1.53h-2l-1.53-1.53v-5.7l2.15-2h4.85l2.17,2.1v-4.41l-1.11-1.11h-5.8l-1,1v1.07h-1.91v-1.69l2.12-2.12h7l2.15-2.15,1.26,1.27ZM634,702.76v1.08l.62.63h1l.62-.63v-1.08l-.62-.63h-1Z"/><path class="cls-2" d="M641.75,683.59h1.92v5.29h-1.92Z"/><path class="cls-2" d="M646.33,697.21l1.53-1,5.47,7.82h.85v-6.53l.13-1.24h-1.76L651,694.7v-1.86l1.53-1.53h2l1.53,1.53v11.83l-1,1.09h-2.67Zm7.75-2.28.62-.62v-1.08l-.62-.63h-1l-.62.63v1.08l.62.62Z"/><path class="cls-2" d="M660.22,703.64v-5.7l1.52-1.53h2l1.53,1.53v1.86l-1.48,1.53H662l.13.93v.7l1,1h5l1-1v-8.78l-1.12-1.11H662.6l-1.12,1.11v.94h-1.91v-1.69l2.12-2.12H669l2.12,2.12v10.21L669,705.76h-6.68Zm3-3.6.62-.62v-1.09l-.62-.62h-1l-.62.62v1.09l.62.62Z"/><path class="cls-2" d="M669.28,683.59h1.92v5.29h-1.92Z"/><path class="cls-2" d="M675.13,703.64v-5.7l1.53-1.53h2l1.53,1.53v1.86l-1.48,1.53h-1.81l.13.93v.7l1,1h5l1-1v-8.78L683,693.07h-5.52l-1.11,1.11v.94h-1.92v-1.69l2.13-2.12h7.33l2.12,2.12v10.21l-2.12,2.12h-6.68Zm3.06-3.6.62-.62v-1.09l-.62-.62h-1l-.62.62v1.09l.62.62Z"/><path class="cls-2" d="M702.92,702.45v2l-1.4,1.32H699.4l-1.4-1.32v-1.19l-4.38,2.51h-1.71v-8.29l.13-1.24h-1.76l-1.53-1.53v-1.86l1.53-1.53h2l1.53,1.53v10.95l6-3.29v-9.19h1.92v10Zm-10.49-9.22-.62-.63h-1l-.62.63v1.08l.62.62h1l.62-.62Zm9.14,9.65-.65-.64H700l-.65.64v1l.65.65h.93l.65-.65Z"/><path class="cls-2" d="M718.87,702.45v2l-1.4,1.32h-2.12l-1.4-1.32v-1.19l-4.38,2.51h-1.71v-8.29l.13-1.24h-1.76l-1.52-1.53v-1.86l1.52-1.53h2l1.53,1.53v10.95l6-3.29v-9.19h1.92v10Zm-10.49-9.22-.62-.63h-1l-.62.63v1.08l.62.62h1l.62-.62Zm9.14,9.65-.64-.64h-.94l-.64.64v1l.64.65h.94l.64-.65Z"/><path class="cls-2" d="M716,713.17l.11-1h-1.58l-1.48-1.48V709l1.48-1.48h1.91l1.48,1.48v5.9H716Zm-.08-2.2.65-.65v-1l-.65-.65h-.88l-.64.65v1l.64.65Z"/><path class="cls-2" d="M725.91,703.74v-5.23l1.38-3.26v-1.58l-1.12-1.12h-2.46l-.82.73h1.42l1.55,1.55v1.76l-1.55,1.56h-2l-1.55-1.56v-3l2.51-2.51H727l2,2v2.38l-1.22,3.06v4.61l.93.93h1.35l.93-.93v-7.9l-.8-1.09v-.88l3.78-3.78,1.22,1.3-3.14,3.05.83,1.06v8.86l-2,2h-3Zm-2.12-6.89.68-.67v-1l-.68-.67h-.93l-.67.62v1l.67.67Z"/><path class="cls-1" d="M369.85,161.81A11.85,11.85,0,0,1,358,150.47H324a11.84,11.84,0,0,1-23.66,0h-20.3a2.87,2.87,0,0,1-2.86-2.86V102.5a21.1,21.1,0,0,1,21.08-21.08H360.4a2.87,2.87,0,0,1,2.86,2.87v9.45a1.87,1.87,0,0,0,1.87,1.86h16.8a15.85,15.85,0,0,1,15.83,15.83v36.18a2.87,2.87,0,0,1-2.86,2.86H381.68A11.85,11.85,0,0,1,369.85,161.81ZM323,149.47h36v.5a10.84,10.84,0,1,0,21.68,0v-.5H394.9a1.87,1.87,0,0,0,1.86-1.86V111.43A14.84,14.84,0,0,0,381.93,96.6h-16.8a2.87,2.87,0,0,1-2.87-2.86V84.29a1.87,1.87,0,0,0-1.86-1.87H298.29a20.1,20.1,0,0,0-20.08,20.08v45.11a1.86,1.86,0,0,0,1.86,1.86h21.29v.5A10.84,10.84,0,0,0,323,150Z"/><rect class="cls-2" x="531.56" y="155.71" width="208.26" height="93.96"/><path class="cls-2" d="M740.32,250.17H531.06v-95H740.32Zm-208.26-1H739.32v-93H532.06Z"/><rect class="cls-2" x="645.36" y="-11.81" width="1" height="295.31" transform="translate(379.37 739.65) rotate(-78.06)"/><rect x="552.39" y="187.19" width="69.26" height="61.99"/><rect x="648.28" y="187.19" width="69.26" height="61.99"/><rect class="cls-2" x="531.06" y="111.69" width="1" height="50.6"/><rect class="cls-2" x="531.56" y="366.76" width="208.26" height="93.96"/><path class="cls-2" d="M740.32,461.22H531.06v-95H740.32Zm-208.26-1H739.32v-93H532.06Z"/><rect class="cls-2" x="645.36" y="199.25" width="1" height="295.31" transform="translate(172.87 907.05) rotate(-78.06)"/><rect x="552.39" y="398.25" width="69.26" height="61.99"/><rect x="648.28" y="398.25" width="69.26" height="61.99"/><rect class="cls-2" x="531.06" y="322.74" width="1" height="50.6"/><rect class="cls-2" x="531.56" y="577.82" width="208.26" height="93.96"/><path class="cls-2" d="M740.32,672.28H531.06v-95H740.32Zm-208.26-1H739.32v-93H532.06Z"/><rect class="cls-2" x="834.55" y="577.82" width="139.82" height="93.96"/><rect class="cls-2" x="645.36" y="410.31" width="1" height="295.31" transform="translate(-33.62 1074.46) rotate(-78.06)"/><rect x="552.39" y="609.3" width="69.26" height="61.99"/><rect x="648.28" y="609.3" width="69.26" height="61.99"/><rect class="cls-2" x="531.06" y="533.8" width="1" height="50.6"/><rect x="853.77" y="596.09" width="23.31" height="23.31"/><rect x="886.14" y="596.09" width="23.31" height="23.31"/><rect x="918.51" y="596.09" width="23.31" height="23.31"/><path class="cls-1" d="M947,647.84s1.34-10.69,12-12C959.65,646.5,947,647.84,947,647.84Z"/><path class="cls-1" d="M947.67,647.84s-1-8.14-9.16-9.16C938,646.82,947.67,647.84,947.67,647.84Z"/><rect class="cls-1" x="946.42" y="647.16" width="1.4" height="8.76"/><path class="cls-1" d="M948.73,662.62a16.76,16.76,0,1,1,16.76-16.76A16.78,16.78,0,0,1,948.73,662.62Zm0-32.51a15.76,15.76,0,1,0,15.76,15.75A15.77,15.77,0,0,0,948.73,630.11Z"/><path class="cls-1" d="M936.3,656.32,947,652.65l15,2.7a17.85,17.85,0,0,1-11.83,6.77C941.85,662.48,936.3,656.32,936.3,656.32Z"/><rect class="cls-2" x="834.55" y="369.67" width="139.82" height="93.96"/><rect class="cls-2" x="853.77" y="308.9" width="23.31" height="110.06"/><rect class="cls-2" x="886.14" y="333.21" width="23.31" height="85.75"/><rect x="853.77" y="387.93" width="23.31" height="23.31"/><rect x="886.14" y="387.93" width="23.31" height="23.31"/><rect x="918.51" y="387.93" width="23.31" height="23.31"/><circle class="cls-2" cx="915.48" cy="298.36" r="12.13"/><circle class="cls-2" cx="904.96" cy="311.93" r="12.13"/><circle class="cls-2" cx="935.73" cy="295.03" r="12.13"/><circle class="cls-2" cx="883.11" cy="272.65" r="12.13"/><circle class="cls-2" cx="872.59" cy="286.23" r="12.13"/><circle class="cls-2" cx="903.35" cy="269.33" r="12.13"/><path d="M1277.09,312.88a28.22,28.22,0,0,0-5.16.47c0-.16,0-.31,0-.47a28.6,28.6,0,0,0-45.32-23.21,28.61,28.61,0,0,0-54.09-2,28.6,28.6,0,0,0-46.34,22.44,28.6,28.6,0,0,0-23.4,45h46.81l0,0,0,0h53.74c0-.14.12-.28.17-.43.05.15.11.29.16.43h98.48a28.61,28.61,0,0,0-25.13-42.27Z"/><path class="cls-2" d="M1302.52,355.65h-200l-.15-.21a29.1,29.1,0,0,1,23.32-45.83A29.14,29.14,0,0,1,1154.8,281a28.78,28.78,0,0,1,17.51,5.87,29.11,29.11,0,0,1,54.58,2,29.11,29.11,0,0,1,45.55,23.89,29.12,29.12,0,0,1,30.22,42.64Zm-98.44-1h97.84a28.11,28.11,0,0,0-29.9-40.81l-.6.11,0-1.07a28.1,28.1,0,0,0-44.53-22.81l-.57.41-.2-.67a28.11,28.11,0,0,0-53.14-2l-.24.63-.54-.42A27.83,27.83,0,0,0,1154.8,282a28.14,28.14,0,0,0-28.11,28.11v.5h-.5a28.1,28.1,0,0,0-23.14,44h46.29l.4-.56.25.56h53.08a.36.36,0,0,1,0-.09l.47-1.36.47,1.36Z"/><path class="cls-1" d="M1170.86,325.17v2.31l-1.71,1.66h-2.48l-1.61-1.61v-.93l-4,2.54h-2.23v-7.69l.18-1h-1.55l-1.76-1.77V316.5l1.81-1.81H1160l1.78,1.81v9.55l4.9-2.92v-8.44h3V324Zm-11.06-8.08-.57-.56h-1l-.55.56v1l.55.54h1l.57-.54Zm9.14,8.73-.54-.54h-.91l-.57.54v.93l.57.55h.91l.54-.55Z"/><path class="cls-1" d="M1186.22,317.2v11.94h-2.93v-11l-.85-.85h-5.31l-.86.85v4.51l2.44-2.38h2.15l1.58,1.63v1.86l-1.58,1.64h-2l-1.14-1.17-.6.65-.8.75v3.55h-2.88V317.2l2.52-2.51h7.77Zm-7.46,6.06.54.57h1l.54-.57v-.93l-.54-.57h-1l-.54.57Z"/><path class="cls-1" d="M1192.59,327.48v-2.33l1.66-1.63h1.52l-.07-.73v-1.21l-6.79-1.58v-3l2.33-2.35h8.5v2.51h-7.2l-.68.7v.52l6.74,1.5v7.56l-1.66,1.66h-2.67Zm3.47-.1.57-.55v-1l-.57-.57h-1l-.54.57v1l.54.55Z"/><path class="cls-1" d="M1204.53,327v-5.56l.18-1h-1.56l-1.76-1.77V316.5l1.82-1.81h2.48l1.79,1.81v9.35l.7.72h4.19l.73-.72v-16.6h3V327l-2.12,2.13h-7.31Zm.36-8.39.57-.54v-1l-.57-.56h-1l-.54.56v1l.54.54Z"/><path class="cls-1" d="M1230.81,331.16v5.62H1227l-1.24-1.19-1.24,1.19-1.35-1.48-1.32,1.48h-2.18l-1.6-1.61v-2.25l1.55-1.63H1222l2.62,3.16,1-1,1.52,1.52h1.43v-.54l.08-.34h-1.12l-1.24-1.21v-1.69l1.29-1.29h2Zm-3.65-9.82-8.68-1.68v-2.57l2.39-2.4h9.4V317h-8.16l-.67.7v.31l8.57,1.56v9.53h-3V327l-.7-.62-.49-.55-1.35,1.32h-2.18l-1.68-1.7v-2l1.66-1.69h2.3l2.54,2.44Zm-5,12.69-.85-1.06h-1l-.52.52v1.06l.52.52h1Zm2.31-10-.55-.55h-.9l-.55.55v.9l.55.57h.9l.55-.57Zm3.7,8.83h.72l.45-.44v-.76l-.45-.44h-.72l-.44.44v.76Z"/><path class="cls-1" d="M1246.27,314.69v14.45H1244l-5.08-2.7v1l-1.68,1.71h-2.38l-1.79-1.79V325.2l1.79-1.79h1v-2l.18-1h-1.56l-1.76-1.77V316.5l1.81-1.81H1237l1.79,1.81v7.2l4.53,2.38V314.69Zm-10.07,3.93.57-.54v-1l-.57-.56h-1l-.54.56v1l.54.54Zm.85,7.2-.54-.57h-.93l-.57.57v.93l.57.55h.93l.54-.55Z"/><path d="M1275.56,634.14a28.22,28.22,0,0,0-5.16.47c0-.16,0-.31,0-.47a28.6,28.6,0,0,0-45.32-23.21,28.61,28.61,0,0,0-54.09-2,28.6,28.6,0,0,0-46.34,22.44,28.61,28.61,0,0,0-23.41,45h46.82l0,0a.08.08,0,0,1,0,0h53.75c0-.14.12-.28.17-.43,0,.15.11.29.16.43h98.48a28.61,28.61,0,0,0-25.13-42.27Z"/><path class="cls-2" d="M1301,676.91H1101l-.15-.21a29.11,29.11,0,0,1,23.33-45.83,29.14,29.14,0,0,1,29.1-28.61,28.78,28.78,0,0,1,17.51,5.87,29.11,29.11,0,0,1,54.58,2A29.11,29.11,0,0,1,1270.91,634a29.12,29.12,0,0,1,30.22,42.64Zm-98.44-1h97.84a28.11,28.11,0,0,0-29.9-40.81l-.6.11,0-1.07a28.1,28.1,0,0,0-44.53-22.81l-.57.41-.2-.67a28.11,28.11,0,0,0-53.14-2l-.25.63-.53-.42a27.83,27.83,0,0,0-17.42-6.06,28.14,28.14,0,0,0-28.11,28.11v.5h-.5a28.11,28.11,0,0,0-23.15,44h46.31l.4-.55.24.55h53.08l0-.09.47-1.36.48,1.36Z"/><path class="cls-1" d="M1156.67,651.47v2.3l-1.69,1.66h-2.48l-1.61-1.61V653l-3.29,2.44h-2.22V653l.13-1.11h-1.38l-1.66-1.66V648l1.66-1.66h2.44l1.65,1.66v4.35l4.33-3v-5l-.83-.85h-5.28l-.78.8v.83h-3v-1.73l2.35-2.41h8.08l2.36,2.41v6.91Zm-10.28-2.8-.55-.57h-1l-.57.57v1l.57.55h1l.55-.55Zm8.39,3.44-.57-.57h-.94l-.57.57v.94l.57.57h.94l.57-.57Z"/><path class="cls-1" d="M1158.58,645.72v-2.33l1.76-1.79h2.23l1.76,1.79v1.37l0,.26.54,0h.67l2.9-2.9,1.79,2.07-3.34,3.32h-6.53Zm0,7.43v-2.36l1.76-1.76h2.23l1.76,1.76v1.38l0,.28.54-.05h.67l2.9-2.88,1.79,2.05-3.34,3.34h-6.53Zm3.42-7.59.52-.54v-1l-.52-.54h-1l-.52.54v1l.52.54Zm0,7.43.52-.54v-1l-.52-.55h-1l-.52.55v1l.52.54Z"/><path class="cls-1" d="M1172.64,653.67V641h3v7.71l-.18,1H1177l1.73,1.76v2.23l-1.76,1.76h-2.54Zm3.55-.08.55-.57v-1l-.55-.55h-1l-.57.55v1l.57.57Z"/><path class="cls-1" d="M1184,653.28v-4.92l1.32-3v-1.63l-1-1h-2l-.7.67h1.14l1.35,1.37v1.82l-1.48,1.55h-2.07l-1.53-1.55v-3.24l2.44-2.59h4.09l2.2,2.25v2.7l-1,2.3v4.4l.6.62h1.42l.6-.62v-7.12l-.7-1v-1.06l4-3.91,1.71,1.81-3,2.9.8,1.22v8.08l-2.12,2.15h-3.93Zm-2-6.66.57-.57v-.88l-.57-.57h-.88l-.57.55v.9l.57.57Z"/><path class="cls-1" d="M1180,636.19l2.61-2.62h6.6l2.65,2.64V639H1180Zm9.29.95v-.59l-1.09-1.09h-4.55l-1.09,1.09v.59Z"/><path class="cls-1" d="M1194.42,647.27l2.18-1.45,5.08,7h.67v-5.2l.18-1H1201l-1.76-1.76v-2.15L1201,641h2.46l1.79,1.78v11.35l-1.3,1.32h-3.52Zm8.32-2.38.54-.55v-1l-.54-.54h-1l-.52.54v1l.52.55Z"/><path class="cls-1" d="M1208.85,653.67V641h3v7.71l-.18,1h1.58l1.73,1.76v2.23l-1.76,1.76h-2.53Zm3.55-.08.54-.57v-1l-.54-.55h-1l-.57.55v1l.57.57Z"/><path class="cls-1" d="M1218.66,647.71l.18-1h-1.55l-1.74-1.71v-2.28l1.71-1.76h2.49l1.68,1.76v7.74h0L1225,641h2.77l2.38,2.41v12h-3V644.29l-.65-.72h-.31l-4.61,11.86h-3Zm.34-2.8.52-.54v-1l-.52-.57h-1l-.57.57v1l.57.54Z"/><path class="cls-1" d="M1236.53,653.77v-2.33l1.66-1.63h1.53l-.08-.73v-1.21l-6.79-1.58v-3l2.33-2.35h8.5v2.51h-7.2l-.67.7v.52l6.73,1.5v7.56l-1.66,1.66h-2.66Zm3.47-.1.57-.55v-1l-.57-.57h-1l-.54.57v1l.54.55Z"/><path class="cls-1" d="M1253.91,644.37l-.83-.83h-3.88l-.81.83V646h-2.92v-2.64l2.38-2.41h6.65l2.36,2.41v12h-2.95Z"/><rect class="cls-2" x="107.26" y="112.85" width="96.92" height="96.92"/><polygon class="cls-2" points="87.18 130.44 155.72 69.68 224.25 130.44 87.18 130.44"/><rect x="140.76" y="161.31" width="29.37" height="48.46"/><path class="cls-1" d="M256.57,413.16h-69V370.45h69Zm-68-1h67V371.45h-67Z"/><path class="cls-1" d="M222.06,433.83a21.17,21.17,0,1,1,21.17-21.17A21.2,21.2,0,0,1,222.06,433.83Zm0-41.34a20.17,20.17,0,1,0,20.17,20.17A20.2,20.2,0,0,0,222.06,392.49Z"/><path class="cls-1" d="M291.43,433.83a21.17,21.17,0,1,1,21.17-21.17A21.2,21.2,0,0,1,291.43,433.83Zm0-41.34a20.17,20.17,0,1,0,20.17,20.17A20.2,20.2,0,0,0,291.43,392.49Z"/><path class="cls-1" d="M269.09,413.45c-20.4,0-46.64-.29-47-.29a.5.5,0,0,1-.45-.29.51.51,0,0,1,.06-.53l34-41.7a.5.5,0,0,1,.38-.19.74.74,0,0,1,.39.18l35.36,41.7a.52.52,0,0,1,.08.52.51.51,0,0,1-.43.31C288.2,413.37,279.39,413.45,269.09,413.45Zm-46-1.28c7.72.08,56.05.56,67.29,0l-34.33-40.47Z"/><path class="cls-1" d="M256.47,371.5l-.81-.59,8.43-11.51a5,5,0,0,1,2.78-2.16,3.88,3.88,0,0,1,3,.53l-.51.86a3,3,0,0,0-2.28-.43,4.15,4.15,0,0,0-2.2,1.75Z"/><rect class="cls-1" x="188.06" y="380.8" width="68.01" height="1"/><rect class="cls-1" x="188.06" y="391.49" width="68.01" height="1"/><rect class="cls-1" x="188.06" y="402.18" width="68.01" height="1"/><rect class="cls-1" x="290.93" y="364.42" width="1" height="48.24"/><rect class="cls-1" x="245.49" y="390.04" width="56.85" height="1" transform="translate(-202.03 358.5) rotate(-51.1)"/><rect class="cls-1" x="281.05" y="363.41" width="20.75" height="6.61" rx="1.86"/><path class="cls-1" d="M255.21,672.5H118.87V596.21H255.21Zm-135.34-1H254.21V597.21H119.87Z"/><path class="cls-1" d="M279.44,597.14H95.21l92.11-48.33.24.12Zm-180.18-1H275.38l-88.06-46.2Z"/><path class="cls-1" d="M184.84,643.22v12.86H174.58s-6.31-1-13-15.9a12.84,12.84,0,0,0,8.58,2.89C172.91,643,184.84,643.22,184.84,643.22Z"/><path class="cls-1" d="M171.91,642.18s-9.64,1-10.94-5.5c2.92-5.49,4.7-9.06,4.7-9.06l-4.09-2.3h12l6.1,10.7-3.87-2.18Z"/><path class="cls-1" d="M180.1,626.69l-10.78-7,5.59-8.6s4.31-4.73,20.41-2.24a12.9,12.9,0,0,0-7.1,5.61C186.79,616.81,180.1,626.69,180.1,626.69Z"/><path class="cls-1" d="M188,616.42s4.39-8.65,10.57-6.18c3,5.44,5,8.87,5,8.87l4.15-2.17-6.51,10L189,626.26l3.93-2.06Z"/><path class="cls-1" d="M197.3,631.6l11.29-6.15,4.9,9s2.1,6-7.75,19a12.86,12.86,0,0,0-1.55-8.92C202.81,642.18,197.3,631.6,197.3,631.6Z"/><path class="cls-1" d="M202.57,643.45s5.51,8,.4,12.23c-6.23.07-10.21.21-10.21.21l-.07,4.69L187,650.08l6.48-10.47-.06,4.43Z"/><rect class="cls-1" x="121.28" y="231.36" width="1" height="340.43"/><rect class="cls-1" x="186.26" y="231.36" width="1" height="130.25"/><rect class="cls-1" x="186.26" y="423.98" width="1" height="115.55"/><rect class="cls-1" x="458.1" y="208.35" width="52.06" height="1"/><rect class="cls-1" x="458.1" y="416.4" width="52.06" height="1"/><rect class="cls-1" x="756.6" y="417.61" width="59.64" height="1"/><rect class="cls-1" x="756.6" y="633.52" width="59.64" height="1"/><rect class="cls-1" x="458.1" y="633.52" width="52.06" height="1"/><polygon class="cls-1" points="458.6 634.02 457.6 634.02 457.6 174.39 224.25 174.39 224.25 173.39 458.6 173.39 458.6 634.02"/><polygon class="cls-1" points="1038.95 419.46 988.41 419.46 988.41 418.46 1037.95 418.46 1037.95 204.48 752 204.48 752 203.48 1038.95 203.48 1038.95 419.46"/><rect class="cls-1" x="1038.45" y="322.24" width="51.22" height="1"/><rect class="cls-1" x="989.83" y="634.02" width="90.77" height="1"/></g></g></svg>