<svg xmlns="http://www.w3.org/2000/svg" viewBox="0 0 409.28 661.39"><defs><style>.cls-1{fill:#fff;}.cls-2{fill:#22b273;}</style></defs><g id="Layer_2" data-name="Layer 2"><g id="Layer_1-2" data-name="Layer 1"><rect width="409.28" height="661.39" rx="30"/><path class="cls-1" d="M219.88,261.7h-.29c-6.2-.13-10.38-4.56-10.38-11V199.39h-.61v51.68a10.57,10.57,0,0,1-3,7.77,10.77,10.77,0,0,1-7.78,2.86c-6.23-.11-10.41-4.56-10.41-11.06V139.83h-.56v43.46a9.37,9.37,0,0,1-2.61,6.88,9.88,9.88,0,0,1-7.13,2.55c-5.7-.13-9.38-4-9.38-9.79V134.7c0-9.54,6.59-17.29,14.7-17.29h52.89c8.11,0,14.7,7.75,14.7,17.29v48.59c0,5.73-3.75,9.43-9.56,9.43s-9.56-3.7-9.56-9.43V139.83h-.56V251.07a10,10,0,0,1-10.49,10.63ZM207.6,198.39h2.61v52.28c0,5.88,3.78,9.91,9.41,10a9,9,0,0,0,9.75-9.63V138.83h2.56v44.46c0,5.12,3.36,8.43,8.56,8.43s8.56-3.31,8.56-8.43V134.7c0-9-6.14-16.29-13.7-16.29H182.46c-7.56,0-13.7,7.31-13.7,16.29v48.23c0,5.23,3.3,8.68,8.4,8.79a8.84,8.84,0,0,0,6.41-2.27,8.38,8.38,0,0,0,2.31-6.16V138.83h2.56V250.64c0,5.91,3.79,10,9.43,10.06h.22a9,9,0,0,0,9.51-9.63Z"/><path class="cls-1" d="M209.93,116.08A21.29,21.29,0,1,1,231.21,94.8,21.31,21.31,0,0,1,209.93,116.08Zm0-41.57A20.29,20.29,0,1,0,230.21,94.8,20.31,20.31,0,0,0,209.93,74.51Z"/><path class="cls-1" d="M202.05,559.31v23.05H196.4v-21.3l-1.65-1.65H184.5l-1.65,1.65v8.7l4.7-4.6h4.15l3.05,3.15v3.6l-3.05,3.15h-3.9l-2.2-2.25-1.15,1.25-1.55,1.45v6.85h-5.55V559.31l4.85-4.85h15ZM187.65,571l1,1.1h1.85l1-1.1v-1.8l-1-1.1H188.7l-1,1.1Z"/><path class="cls-1" d="M235.7,574.71v4.45l-3.3,3.2h-4.8l-3.1-3.1v-1.8l-7.65,4.9h-4.3V567.51l.35-2h-3l-3.4-3.4V558l3.5-3.5h4.8l3.45,3.5v18.45l9.45-5.65v-16.3h5.7v17.95Zm-21.35-15.6-1.1-1.1H211.4l-1.05,1.1V561l1.05,1h1.85l1.1-1ZM232,576,231,574.91H229.2L228.1,576v1.8l1.1,1H231l1.05-1Z"/><path class="cls-1" d="M50.29,334l.35-1.95h-3l-3.4-3.4v-4.2l3.5-3.5h4.7l3.4,3.35V339h.1l5.25-12.44h2.5l5.15,12.39H69V321h5.55v27.9H69l-6.55-15.65-6.6,15.65H50.29Zm.7-5.45,1-1v-1.91l-1-1.09h-1.9L48,325.62v1.91l1.05,1Z"/><path class="cls-1" d="M108.19,341.22v4.45l-3.3,3.2h-4.8l-3.1-3.1V344l-7.65,4.9H85V334l.35-1.95h-3l-3.4-3.4v-4.2l3.5-3.5h4.8l3.45,3.5v18.45l9.45-5.65V321h5.7v17.95Zm-21.35-15.6-1.1-1.09H83.89l-1,1.09v1.91l1,1h1.85l1.1-1Zm17.65,16.85-1-1.05h-1.75l-1.1,1.05v1.8l1.1,1.05h1.75l1-1.05Z"/><path class="cls-1" d="M90.54,314.07v-4.2l2.95-2.95H98l3,2.95v2.75h4l4.9-5.2,3.2,3.36-6,6.29H93.54Zm6-.29,1-1v-1.71l-1-.95H94.94l-1,.95v1.71l1,1Z"/><path class="cls-1" d="M113.64,334.62l2.5-3.45-4.5-4.1,5.7-6.1h14.85l4.55,4.6v23.3H131V327.53l-1.6-1.61h-10l-1.35,1.36,4,3.94-2.8,4.15v13.5h-5.7Z"/><path class="cls-1" d="M140.94,333.12l4.2-2.8,9.8,13.6h1.3V333.87l.35-1.9h-3l-3.4-3.4v-4.15l3.45-3.45h4.75l3.45,3.45v21.9l-2.5,2.55h-6.8ZM157,328.53l1-1.06v-1.9l-1-1h-2l-1,1v1.9l1,1.06Z"/><path class="cls-1" d="M182.84,327.53l-1.6-1.61h-7.5l-1.55,1.61v3.19h-5.65v-5.1l4.6-4.65H184l4.55,4.65v23.25h-5.7Z"/><path class="cls-1" d="M222.19,341.22v4.45l-3.3,3.2h-4.8l-3.1-3.1V344l-7.65,4.9H199V334l.35-1.95h-3l-3.4-3.4v-4.2l3.5-3.5h4.8l3.45,3.5v18.45l9.45-5.65V321h5.7v17.95Zm-21.35-15.6-1.1-1.09h-1.85l-1,1.09v1.91l1,1h1.85l1.1-1Zm17.65,16.85-1.05-1.05h-1.75l-1.1,1.05v1.8l1.1,1.05h1.75l1.05-1.05Z"/><path class="cls-1" d="M227.14,345.47V321h5.7v14.9l-.35,1.9h3l3.35,3.4v4.3l-3.4,3.4h-4.9Zm6.85-.15,1-1.1v-1.9l-1-1.05h-1.85l-1.1,1.05v1.9l1.1,1.1Z"/><path class="cls-1" d="M243.59,334.62l2.5-3.45-4.5-4.1,5.7-6.1h14.85l4.55,4.6v23.3H261V327.53l-1.6-1.61h-10L248,327.28l4.05,3.94-2.8,4.15v13.5h-5.7Z"/><path class="cls-1" d="M246.39,308.28l4-4h10.75l3.35-3.35,2.8,2.81L263.09,308H252.24l-1.35,1.39v3.75l3.4-2.7,3.1,2.65h.8v-1.5l2.35-2.4h3.7l2.35,2.31v3.29l-2.3,2.25h-7.45l-3.1-2.6-3.3,2.6h-4.05Zm16.7,6.39.85-.85v-1.35l-.85-.85h-1.45l-.85.85v1.35l.85.85Z"/><path class="cls-1" d="M277.19,344.77V334l.35-1.95h-3l-3.4-3.4v-4.2l3.5-3.5h4.8l3.45,3.5v18l1.35,1.4h8l1.4-1.4V321h5.7v23.8l-4.1,4.1h-14Zm.7-16.2,1.1-1v-1.91l-1.1-1.09H276L275,325.62v1.91l1.05,1Z"/><path class="cls-1" d="M313.69,344.72v-9.5l2.55-5.8v-3.14l-1.9-2h-3.95L309,325.57h2.2l2.6,2.65v3.5l-2.85,3h-4l-2.95-3v-6.25l4.7-5h7.9l4.25,4.35V330L319,334.47V343l1.15,1.2h2.15l1.15-1.2V321h5.45v23.75l-4.1,4.15h-7Zm-3.9-12.85,1.1-1.09v-1.71l-1.1-1.1h-1.7L307,329v1.75l1.1,1.09Z"/><path class="cls-1" d="M358.89,321v23.6l-4.2,4.3H339.64l-4.25-4.3v-4.95l3.7-3.05-3.7-2.9v-8.89l3.75-3.81h4.8l3.35,3.4v3.95l-3.1,3.15h-3.5l-.35-.25v1.3l2.7,2h5.55v4.1h-5.2l-2.3,2v2.1l1.35,1.35h9.35l1.4-1.4V321Zm-19.3,6.31,1.05,1h1.85l1.1-1v-1.91l-1.1-1.05h-1.85l-1.05,1.05Z"/><path class="cls-1" d="M364.34,330.12v-4.5l3.4-3.45H372l3.4,3.45v2.66l-.05.5,1.05-.06h1.3l5.6-5.6,3.45,4-6.45,6.4h-12.6Zm0,14.35v-4.55l3.4-3.4H372l3.4,3.4v2.65l-.05.55,1.05-.1h1.3l5.6-5.55,3.45,3.95-6.45,6.45h-12.6Zm6.6-14.65,1-1v-1.91l-1-1.05H369l-1,1.05v1.91l1,1Zm0,14.35,1-1.05v-1.9l-1-1.05H369l-1,1.05v1.9l1,1.05Z"/><path class="cls-2" d="M86.77,432.49l-15.3,7.9v-10.7l17.3-9.5h9.6v70H86.77Z"/><path class="cls-2" d="M111.77,479.09v-47.8l11.1-11.1h30.2l11.1,11.1v47.8l-11.1,11.1h-30.2Zm35.9,1.1,4.9-4.8V435l-4.9-4.8h-19.4l-4.9,4.8v40.4l4.9,4.8Z"/><path class="cls-2" d="M205.57,476.79h-34v-13.1l30.7-43.5h14.9v46.6h8.5v10h-8.5v13.4h-11.6Zm.4-9.7v-34.6h-.5l-22.6,32.3v2.3Z"/><path class="cls-2" d="M232.07,479.89v-10.2h11.6v6.7l3.9,3.8h18.8l3.9-3.8v-17.2l-3.9-3.9h-33.3v-35.1h47.4v10h-36v15.1h27l10.4,10.4v24.2l-10.3,10.3h-29.2Z"/><path class="cls-2" d="M322.27,476.79h-34v-13.1l30.7-43.5h14.9v46.6h8.5v10h-8.5v13.4h-11.6Zm.4-9.7v-34.6h-.5l-22.6,32.3v2.3Z"/></g></g></svg>