<svg xmlns="http://www.w3.org/2000/svg" viewBox="0 0 409.28 661.39"><defs><style>.cls-1{fill:#fff;}.cls-2{fill:#22b273;}</style></defs><g id="Layer_2" data-name="Layer 2"><g id="Layer_1-2" data-name="Layer 1"><rect width="409.28" height="661.39" rx="30"/><path class="cls-1" d="M256.56,238.45H164.7A65.51,65.51,0,0,1,99.25,173v-.5H322v.5A65.51,65.51,0,0,1,256.56,238.45ZM100.25,173.51a64.52,64.52,0,0,0,64.45,63.94h91.86A64.52,64.52,0,0,0,321,173.51Z"/><path class="cls-1" d="M177.48,168.11H119.54V136.52h57.94Zm-56.94-1h55.94V137.52H120.54Z"/><path class="cls-1" d="M239.6,168.11H181.66V136.52H239.6Zm-56.94-1H238.6V137.52H182.66Z"/><path class="cls-1" d="M301.72,168.11H243.78V136.52h57.94Zm-56.94-1h55.94V137.52H244.78Z"/><path class="cls-1" d="M239.6,132.39H181.66V100.81H239.6Zm-56.94-1H238.6V101.81H182.66Z"/><path class="cls-1" d="M301.72,132.39H243.78V100.81h57.94Zm-56.94-1h55.94V101.81H244.78Z"/><path class="cls-1" d="M190.84,579.16V569l4.65-4.5h9.35l3.5,3.45v-7l-1.55-1.65h-10l-1.5,1.55v1.6h-5.7v-3.35l4.55-4.65h15.3l4.55,4.65v23.25h-5.7v-8.45l-4.8-4.8h-6l-1.15,1.15v.7l-.15.95h2.6l3.15,3.15v4.1l-3.25,3.2H194Zm6.5,0,1-1.1v-1.8l-1-1.1h-1.8l-1,1.1V578l1,1.1Z"/><path class="cls-1" d="M204.69,547.31v-4.5l3.5-3.5h5.05l3.45,3.5v4.5l-3.45,3.5h-5.05Zm7,.05,1.4-1.4v-1.85l-1.4-1.4h-1.95l-1.4,1.4V546l1.4,1.4Z"/><path class="cls-1" d="M235,561l-1.6-1.6h-7.5l-1.55,1.6v3.2h-5.65v-5.1l4.6-4.65h12.85l4.55,4.65v23.25H235Z"/><path class="cls-1" d="M104.27,345.43v-24.5H110v14.9l-.35,1.9h3l3.35,3.4v4.3l-3.4,3.4h-4.9Zm6.85-.15,1-1.1v-1.9l-1-1h-1.85l-1.1,1v1.9l1.1,1.1Z"/><path class="cls-1" d="M124.07,345.63v-4.5l3.2-3.15h3l-.15-1.4v-2.35L117,331.18v-5.7l4.5-4.55h16.4v4.85H124l-1.3,1.35v1l13,2.9v14.6l-3.2,3.2h-5.15Zm6.7-.2,1.1-1.05v-1.9l-1.1-1.1h-1.85l-1,1.1v1.9l1,1.05Z"/><path class="cls-1" d="M137.87,304.18V317H115v-5.35l5-5.05h6.75v-2.45h4.3v3.2l2.5,2.1v-5.3Zm-5.5,8.25-2.4-2.15h-8l-2,2v1.25h12.45Z"/><path class="cls-1" d="M143.57,344.48v-10.7l3.2-3.2h4.7l3.2,3.2v4.15l-3.1,3.1H149l.1.9v.8l1.3,1.3h8.8l1.55-1.55V327.43l-1.6-1.65h-9.55l-1.6,1.65v1.5h-5.7v-3.35l4.55-4.65h15l4.55,4.65v18.9l-4.3,4.35H147.82Zm6.5-6.55,1.05-1.1v-1.9l-1.05-1.05h-1.85l-1,1.05v1.9l1,1.1Z"/><path class="cls-1" d="M173.17,345.43v-24.5h5.7v14.9l-.35,1.9h3l3.35,3.4v4.3l-3.4,3.4h-4.9Zm6.85-.15,1-1.1v-1.9l-1-1h-1.85l-1.1,1v1.9l1.1,1.1Z"/><path class="cls-1" d="M189.62,334.58l2.5-3.45-4.5-4.1,5.7-6.1h14.85l4.55,4.6v23.3H207V327.48l-1.6-1.6h-10l-1.35,1.35,4.05,3.95-2.8,4.15v13.5h-5.7Z"/><path class="cls-1" d="M192.42,308.23l4-4h10.75l3.35-3.35,2.8,2.8L209.12,308H198.27l-1.35,1.4v3.75l3.4-2.7,3.1,2.65h.8v-1.5l2.35-2.4h3.7l2.35,2.3v3.3l-2.3,2.25h-7.45l-3.1-2.6-3.3,2.6h-4.05Zm16.7,6.4.85-.85v-1.35l-.85-.85h-1.45l-.85.85v1.35l.85.85Z"/><path class="cls-1" d="M223.22,344.73V334l.35-2h-3l-3.4-3.4v-4.2l3.5-3.5h4.8l3.45,3.5v18.05l1.35,1.4h8l1.4-1.4V320.93h5.7v23.8l-4.1,4.1h-14Zm.7-16.2,1.1-1v-1.9l-1.1-1.1h-1.85l-1,1.1v1.9l1,1Z"/><path class="cls-1" d="M259.72,344.68v-9.5l2.55-5.8v-3.15l-1.9-2h-3.95l-1.35,1.3h2.2l2.6,2.65v3.5l-2.85,3h-4l-3-3v-6.25l4.7-5h7.9l4.25,4.35V330l-1.85,4.45v8.5l1.15,1.2h2.15l1.15-1.2v-22H275v23.75l-4.1,4.15h-7.05Zm-3.9-12.85,1.1-1.1V329l-1.1-1.1h-1.7L253,329v1.75l1.1,1.1Z"/><path class="cls-1" d="M304.92,320.93v23.6l-4.2,4.3H285.67l-4.25-4.3v-4.95l3.7-3.05-3.7-2.9v-8.9l3.75-3.8H290l3.35,3.4v3.95l-3.1,3.15h-3.5l-.35-.25v1.3l2.7,1.95h5.55v4.1h-5.2l-2.3,2v2.1l1.35,1.35h9.35l1.4-1.4V320.93Zm-19.3,6.3,1.05,1h1.85l1.1-1v-1.9l-1.1-1.05h-1.85l-1.05,1.05Z"/><path class="cls-1" d="M310.37,330.08v-4.5l3.4-3.45h4.3l3.4,3.45v2.65l-.05.5,1.05-.05h1.3l5.6-5.6,3.45,4-6.45,6.4h-12.6Zm0,14.35v-4.55l3.4-3.4h4.3l3.4,3.4v2.65l-.05.55,1.05-.1h1.3l5.6-5.55,3.45,3.95-6.45,6.45h-12.6Zm6.6-14.65,1-1v-1.9l-1-1.05h-2l-1,1.05v1.9l1,1Zm0,14.35,1-1.05v-1.9l-1-1.05h-2l-1,1.05v1.9l1,1.05Z"/><path class="cls-2" d="M178.52,432.49l-15.3,7.9v-10.7l17.3-9.5h9.6v70h-11.6Z"/><path class="cls-2" d="M215.82,432.49l-15.3,7.9v-10.7l17.3-9.5h9.6v70h-11.6Z"/><path class="cls-2" d="M253.12,432.49l-15.3,7.9v-10.7l17.3-9.5h9.6v70h-11.6Z"/></g></g></svg>