<svg xmlns="http://www.w3.org/2000/svg" viewBox="0 0 409.28 661.39"><defs><style>.cls-1{fill:#fff;}.cls-2{fill:#22b273;}</style></defs><g id="Layer_2" data-name="Layer 2"><g id="Layer_1-2" data-name="Layer 1"><rect width="409.28" height="661.39" rx="30"/><path class="cls-1" d="M252.11,256.29A21.83,21.83,0,0,1,230.32,235H165.64a21.8,21.8,0,0,1-43.58,0H96.82a4.94,4.94,0,0,1-4.93-4.94V162.12a29.31,29.31,0,0,1,29.28-29.28h31.56a3.94,3.94,0,0,0,3.93-3.94V111.15a4.94,4.94,0,0,1,4.94-4.93H278.24a39.19,39.19,0,0,1,39.15,39.14v84.7a5,5,0,0,1-4.94,4.94H273.9A21.82,21.82,0,0,1,252.11,256.29ZM164.65,234h66.67v.5a20.8,20.8,0,0,0,41.59,0V234h39.54a4,4,0,0,0,3.94-3.94v-84.7a38.19,38.19,0,0,0-38.15-38.14H161.6a3.94,3.94,0,0,0-3.94,3.93V128.9a4.94,4.94,0,0,1-4.93,4.94H121.17a28.3,28.3,0,0,0-28.28,28.28v67.94A3.94,3.94,0,0,0,96.82,234h26.24v.5a20.8,20.8,0,0,0,41.59,0Z"/><path class="cls-1" d="M203.47,559.31v23.05h-5.65v-21.3l-1.65-1.65H185.92l-1.65,1.65v8.7l4.7-4.6h4.15l3,3.15v3.6l-3,3.15h-3.9l-2.2-2.25-1.15,1.25-1.55,1.45v6.85h-5.55V559.31l4.85-4.85h15ZM189.07,571l1.05,1.1H192L193,571v-1.8l-1.05-1.1h-1.85l-1.05,1.1Z"/><path class="cls-1" d="M188.12,547.56v-4.2l2.95-3h4.5l3,3v2.75h4l4.9-5.2,3.2,3.35-6,6.3H191.12Zm6-.3,1-1v-1.7l-1-.95h-1.65l-1,.95v1.7l1,1Z"/><path class="cls-1" d="M237.12,574.71v4.45l-3.3,3.2H229l-3.1-3.1v-1.8l-7.65,4.9H214V567.51l.35-2h-3l-3.4-3.4V558l3.5-3.5h4.8l3.45,3.5v18.45l9.45-5.65v-16.3h5.7v17.95Zm-21.35-15.6-1.1-1.1h-1.85l-1,1.1V561l1,1h1.85l1.1-1ZM233.42,576l-1-1.05h-1.75l-1.1,1.05v1.8l1.1,1h1.75l1-1Z"/><path class="cls-1" d="M106,345.67v-4.5l3.2-3.15h3l-.15-1.4v-2.35l-13.1-3v-5.7l4.5-4.55h16.4v4.85h-13.9l-1.3,1.35v1l13,2.9v14.6l-3.2,3.2h-5.15Zm6.7-.2,1.1-1.05v-1.9l-1.1-1.1h-1.85l-1,1.1v1.9l1,1.05Z"/><path class="cls-1" d="M125.86,345.67v-11.2l2.65-3.3-4.5-4.1,5.7-6.1h14.85l4.55,4.6v23.3h-5.7V327.52l-1.6-1.6h-10l-1.35,1.35,4,4-3,3.9V337l-.15,1.2h2.5l3.2,3.15v4.3l-3.25,3.2h-4.7Zm6.5-.15,1.1-1v-1.85l-1.1-1.05h-1.75l-1.1,1.05v1.85l1.1,1Z"/><path class="cls-1" d="M156.06,345.47V321h5.7v14.9l-.35,1.9h3.05l3.35,3.4v4.3l-3.4,3.4h-4.9Zm6.85-.15,1.05-1.1v-1.9l-1.05-1.05h-1.85l-1.1,1.05v1.9l1.1,1.1Z"/><path class="cls-1" d="M172.51,334.62l2.5-3.45-4.5-4.1,5.7-6.1h14.85l4.55,4.6v23.3h-5.7V327.52l-1.6-1.6h-10L177,327.27l4,4-2.8,4.15v13.5h-5.7Z"/><path class="cls-1" d="M175.31,308.27l3.95-3.95H190l3.35-3.35,2.8,2.8L192,308H181.16l-1.35,1.4v3.75l3.4-2.7,3.1,2.65h.8v-1.5l2.35-2.4h3.7l2.35,2.3v3.3l-2.3,2.25h-7.45l-3.1-2.6-3.3,2.6h-4.05Zm16.7,6.4.85-.85v-1.35l-.85-.85h-1.45l-.85.85v1.35l.85.85Z"/><path class="cls-1" d="M206.11,344.77V334l.35-1.95h-3l-3.4-3.4v-4.2l3.5-3.5h4.8l3.45,3.5v18l1.35,1.4h8l1.4-1.4V321h5.7v23.8l-4.1,4.1h-14Zm.7-16.2,1.1-1.05v-1.9l-1.1-1.1H205l-1.05,1.1v1.9l1.05,1.05Z"/><path class="cls-1" d="M242.61,344.72v-9.5l2.55-5.8v-3.15l-1.9-2h-3.95l-1.35,1.3h2.2l2.6,2.65v3.5l-2.85,3h-4l-2.95-3v-6.25l4.7-5h7.9l4.25,4.35V330L248,334.47V343l1.15,1.2h2.15l1.15-1.2V321h5.45v23.75l-4.1,4.15h-7Zm-3.9-12.85,1.1-1.1v-1.7l-1.1-1.1H237l-1.1,1v1.75l1.1,1.1Z"/><path class="cls-1" d="M287.81,321v23.6l-4.2,4.3H268.56l-4.25-4.3v-4.95l3.7-3.05-3.7-2.9v-8.9l3.75-3.8h4.8l3.35,3.4v3.95l-3.1,3.15h-3.5l-.35-.25v1.3l2.7,2h5.55v4.1h-5.2l-2.3,2v2.1l1.35,1.35h9.35l1.4-1.4V321Zm-19.3,6.3,1.05,1.05h1.85l1.1-1.05v-1.9l-1.1-1.05h-1.85l-1.05,1.05Z"/><path class="cls-1" d="M293.26,330.12v-4.5l3.4-3.45H301l3.4,3.45v2.65l-.05.5,1.05,0h1.3l5.6-5.6,3.45,4-6.45,6.4h-12.6Zm0,14.35v-4.55l3.4-3.4H301l3.4,3.4v2.65l-.05.55,1.05-.1h1.3l5.6-5.55,3.45,3.95-6.45,6.45h-12.6Zm6.6-14.65,1-1.05v-1.9l-1-1.05h-1.95l-1,1.05v1.9l1,1.05Zm0,14.35,1-1.05v-1.9l-1-1.05h-1.95l-1,1.05v1.9l1,1.05Z"/><path class="cls-2" d="M105.51,475.49l36.2-33.8V434l-3.89-3.8H120.61l-3.9,3.8v6.5h-11.6v-10l10.3-10.3H143l10.31,10.3v14.6l-35.91,33.1v2.1h36.3v9.9h-48.2Z"/><path class="cls-2" d="M175.91,432.49l-15.3,7.9v-10.7l17.3-9.5h9.6v70h-11.6Z"/><path class="cls-2" d="M230.41,476.79h-34v-13.1l30.7-43.5H242v46.6h8.5v10H242v13.4h-11.6Zm.4-9.7v-34.6h-.5l-22.6,32.3v2.3Z"/><path class="cls-2" d="M257.91,479.09v-47.8l11.1-11.1h30.2l11.1,11.1v47.8l-11.1,11.1H269Zm35.9,1.1,4.9-4.8V435l-4.9-4.8h-19.4l-4.9,4.8v40.4l4.9,4.8Z"/></g></g></svg>