<svg xmlns="http://www.w3.org/2000/svg" viewBox="0 0 409.28 661.39"><defs><style>.cls-1{fill:#fff;}.cls-2{fill:#22b273;}</style></defs><g id="Layer_2" data-name="Layer 2"><g id="Layer_1-2" data-name="Layer 1"><rect width="409.28" height="661.39" rx="30"/><rect class="cls-1" x="204.09" y="-47.44" width="1.1" height="323.85" transform="translate(50.31 291.02) rotate(-78.06)"/><path class="cls-1" d="M308.23,239.85H78.74V135.71H308.23Zm-24.44-1.1h23.34V136.81H79.84V238.75h21.74V170.23h77.05v68.52h28.12V170.23h77Zm-76-.53H282.7V171.33H207.84Zm-105.16,0h74.85V171.33H102.68Z"/><rect class="cls-1" x="78.74" y="87.98" width="1.1" height="55.49"/><path class="cls-1" d="M79.43,324.72l1.4,1.55v22.6h-5.7v-8.45l-4.8-4.8h-6l-1.15,1.15v.7l-.15.95h2.6l3.15,3.15v4.1l-3.25,3.2h-4.7l-3.2-3.2V335.52l4.65-4.5h9.35l3.55,3.45v-7l-1.6-1.65h-10l-1.5,1.55V329h-5.7v-3.35L61,321h14.6l3.65-3.6L83,321.12Zm-17.05,16.9-1.05,1.1v1.8l1.05,1.1h1.8l1-1.1v-1.8l-1-1.1Z"/><path class="cls-1" d="M88.13,345.67v-11.2l2.65-3.3-4.5-4.1L92,321h14.85l4.55,4.6v23.3h-5.7V327.52l-1.6-1.6h-10l-1.35,1.35,4,4-3,3.9V337l-.15,1.2h2.5l3.2,3.15v4.3l-3.25,3.2h-4.7Zm6.5-.15,1.1-1v-1.85l-1.1-1.05H92.88l-1.1,1.05v1.85l1.1,1Z"/><path class="cls-1" d="M132.38,327.52l-1.6-1.6h-7.5l-1.55,1.6v3.2h-5.65v-5.1l4.6-4.65h12.85l4.55,4.65v23.25h-5.7Z"/><path class="cls-1" d="M171.73,341.22v4.45l-3.3,3.2h-4.8l-3.1-3.1V344l-7.65,4.9h-4.3V334l.35-1.95h-3l-3.4-3.4v-4.2L146,321h4.8l3.45,3.5v18.45l9.45-5.65V321h5.7v17.95Zm-21.35-15.6-1.1-1.1h-1.85l-1.05,1.1v1.9l1.05,1.05h1.85l1.1-1.05ZM168,342.47,167,341.42h-1.75l-1.1,1.05v1.8l1.1,1.05H167l1.05-1.05Z"/><path class="cls-1" d="M169.43,304.22v12.85h-22.9v-5.35l5.05-5.05h10.3l2.55,2.15v-4.6Zm-5.5,8.1-2.25-2h-8.2l-2,2v1.25h12.45Z"/><path class="cls-1" d="M184.08,344.72v-9.5l2.55-5.8v-3.15l-1.9-2h-3.95l-1.35,1.3h2.2l2.6,2.65v3.5l-2.85,3h-4l-2.95-3v-6.25l4.7-5H187l4.25,4.35V330l-1.85,4.45V343l1.15,1.2h2.15l1.15-1.2V321h5.45v23.75l-4.1,4.15h-7Zm-3.9-12.85,1.1-1.1v-1.7l-1.1-1.1h-1.7l-1.1,1v1.75l1.1,1.1Z"/><path class="cls-1" d="M233,341.22v4.45l-3.3,3.2h-4.8l-3.1-3.1V344l-7.65,4.9h-4.3V334l.35-1.95h-3l-3.4-3.4v-4.2l3.5-3.5h4.8l3.45,3.5v18.45l9.45-5.65V321h5.7v17.95Zm-21.35-15.6-1.1-1.1h-1.85l-1.05,1.1v1.9l1.05,1.05h1.85l1.1-1.05Zm17.65,16.85-1.05-1.05h-1.75l-1.1,1.05v1.8l1.1,1.05h1.75l1.05-1.05Z"/><path class="cls-1" d="M259.93,324.72l1.4,1.55v22.6h-5.7v-8.45l-4.8-4.8h-6l-1.15,1.15v.7l-.15.95h2.6l3.15,3.15v4.1l-3.25,3.2h-4.7l-3.2-3.2V335.52l4.65-4.5h9.35l3.55,3.45v-7l-1.6-1.65h-10l-1.5,1.55V329h-5.7v-3.35l4.55-4.65h14.6l3.65-3.6,3.75,3.75Zm-17.05,16.9-1,1.1v1.8l1,1.1h1.8l1-1.1v-1.8l-1-1.1Z"/><path class="cls-1" d="M255.68,306.67h5.65v10.4h-5.65Z"/><path class="cls-1" d="M265.53,333.12l4.2-2.8,9.8,13.6h1.3V333.87l.35-1.9h-3l-3.4-3.4v-4.15l3.45-3.45H283l3.45,3.45v21.9l-2.5,2.55h-6.8Zm16.05-4.6,1.05-1v-1.9l-1.05-1.05h-1.95l-1,1.05v1.9l1,1Z"/><path class="cls-1" d="M300.78,344.72v-9.5l2.55-5.8v-3.15l-1.9-2h-3.95l-1.35,1.3h2.2l2.6,2.65v3.5l-2.85,3h-4l-2.95-3v-6.25l4.7-5h7.9l4.25,4.35V330l-1.85,4.45V343l1.15,1.2h2.15l1.15-1.2V321H316v23.75l-4.1,4.15h-7.05Zm-3.9-12.85,1.1-1.1v-1.7l-1.1-1.1h-1.7l-1.1,1v1.75l1.1,1.1Z"/><path class="cls-1" d="M346,321v23.6l-4.2,4.3h-15l-4.25-4.3v-4.95l3.7-3.05-3.7-2.9v-8.9l3.75-3.8H331l3.35,3.4v3.95l-3.1,3.15h-3.5l-.35-.25v1.3l2.7,2h5.55v4.1h-5.2l-2.3,2v2.1l1.35,1.35h9.35l1.4-1.4V321Zm-19.3,6.3,1.05,1.05h1.85l1.1-1.05v-1.9l-1.1-1.05h-1.85l-1.05,1.05Z"/><path class="cls-1" d="M351.43,330.12v-4.5l3.4-3.45h4.3l3.4,3.45v2.65l0,.5,1,0h1.3l5.6-5.6,3.45,4-6.45,6.4h-12.6Zm0,14.35v-4.55l3.4-3.4h4.3l3.4,3.4v2.65l0,.55,1-.1h1.3l5.6-5.55,3.45,3.95-6.45,6.45h-12.6Zm6.6-14.65,1-1.05v-1.9l-1-1.05h-1.95l-1,1.05v1.9l1,1.05Zm0,14.35,1-1.05v-1.9l-1-1.05h-1.95l-1,1.05v1.9l1,1.05Z"/><path class="cls-1" d="M160.89,579v-24.5h5.7v14.9l-.35,1.9h3l3.35,3.4V579l-3.45,3.4h-4.8Zm6.85-.15,1-1.1v-1.9l-1-1h-1.85l-1.1,1v1.9l1.1,1.1Zm7.5.15v-24.5h5.7v14.9l-.35,1.9h3l3.35,3.4V579l-3.4,3.4h-4.9Zm6.85-.15,1.1-1.1v-1.9l-1.1-1h-1.85l-1.05,1v1.9l1.05,1.1Z"/><path class="cls-1" d="M216.44,562.11l-2.25,2.15,2.25,2v16.05h-5.7V568.31l-.8-.75L199,582.36h-4.75V567.51l.35-2h-3l-3.4-3.4V558l3.5-3.5h4.8l3.45,3.5v16.45l7.2-9.95-2.35-2.35V558l3.35-3.5H213l3.45,3.5Zm-20.4-3-1.1-1.1h-1.85l-1.05,1.1V561l1.05,1h1.85l1.1-1Zm12.55,1.8,1.1,1.1h1.85l1.05-1.1V559l-1.05-1h-1.85l-1.1,1Z"/><path class="cls-1" d="M210.79,540.16h5.65v10.4h-5.65Z"/><path class="cls-1" d="M220.64,566.61l4.2-2.8,9.8,13.6h1.3v-10l.35-1.9h-3l-3.4-3.4v-4.15l3.45-3.45h4.75l3.45,3.45v21.9l-2.5,2.55h-6.8Zm16.05-4.6,1.05-1v-1.9l-1.05-1h-1.95l-1,1V561l1,1Z"/><path class="cls-2" d="M174.44,479.89V470H186v6.4l3.9,3.8h19l3.9-3.8v-12.7l-3.7-3.7h-20V450h20l3.7-3.7V434l-3.9-3.8h-18.4l-3.9,3.8v6.4H175v-9.9l10.3-10.3h28.8l10.3,10.3v19.2L219,455l5.4,5.4v19.5l-10.3,10.3h-29.4Z"/></g></g></svg>